<svg width="211" height="251" viewBox="0 0 211 251" fill="none" xmlns="http://www.w3.org/2000/svg">
<g opacity="0.5">
<path fill-rule="evenodd" clip-rule="evenodd" d="M90.9735 78.716C104.12 91.3424 125.013 90.9205 137.64 77.7738C150.266 64.6271 149.844 43.734 136.698 31.1076C123.551 18.4813 102.658 18.9031 90.0314 32.0498C77.405 45.1965 77.8268 66.0897 90.9735 78.716ZM92.5395 77.0856C104.786 88.8472 124.248 88.4542 136.009 76.208C147.771 63.9618 147.378 44.4996 135.132 32.7381C122.886 20.9766 103.423 21.3695 91.6619 33.6157C79.9003 45.862 80.2933 65.3241 92.5395 77.0856Z" fill="#1DD9B3" fill-opacity="0.3"/>
<path fill-rule="evenodd" clip-rule="evenodd" d="M120.111 112.342C133.258 124.969 154.151 124.547 166.777 111.4C179.404 98.2534 178.982 77.3602 165.835 64.7338C152.689 52.1075 131.795 52.5293 119.169 65.676C106.543 78.8227 106.965 99.7159 120.111 112.342ZM121.677 110.712C133.923 122.473 153.386 122.08 165.147 109.834C176.909 97.588 176.516 78.1258 164.269 66.3643C152.023 54.6028 132.561 54.9957 120.8 67.2419C109.038 79.4882 109.431 98.9503 121.677 110.712Z" fill="#1DD9B3" fill-opacity="0.6"/>
<path fill-rule="evenodd" clip-rule="evenodd" d="M82.7853 116.613C95.932 129.24 116.825 128.818 129.452 115.671C142.078 102.524 141.656 81.6312 128.509 69.0048C115.363 56.3785 94.4695 56.8003 81.8431 69.947C69.2168 83.0937 69.6386 103.987 82.7853 116.613ZM84.351 114.983C96.5972 126.744 116.059 126.351 127.821 114.105C139.582 101.859 139.189 82.3967 126.943 70.6352C114.697 58.8737 95.2348 59.2666 83.4733 71.5128C71.7118 83.7591 72.1047 103.221 84.351 114.983Z" fill="#1DD9B3" fill-opacity="0.5"/>
</g>
<g opacity="0.5">
<path fill-rule="evenodd" clip-rule="evenodd" d="M118.192 175.271C135.767 170.435 146.094 152.267 141.258 134.693C136.423 117.118 118.255 106.791 100.68 111.627C83.1054 116.462 72.7784 134.63 77.6143 152.205C82.4501 169.779 100.618 180.106 118.192 175.271ZM117.593 173.091C133.964 168.586 143.583 151.663 139.079 135.292C134.574 118.921 117.651 109.301 101.28 113.806C84.9088 118.311 75.2892 135.234 79.7938 151.605C84.2984 167.976 101.221 177.596 117.593 173.091Z" fill="#1DD9B3" fill-opacity="0.3"/>
<path fill-rule="evenodd" clip-rule="evenodd" d="M161.992 167.439C179.567 162.603 189.894 144.436 185.058 126.861C180.222 109.286 162.055 98.9591 144.48 103.795C126.905 108.631 116.578 126.798 121.414 144.373C126.25 161.948 144.417 172.275 161.992 167.439ZM161.392 165.259C177.763 160.755 187.383 143.832 182.878 127.461C178.373 111.09 161.45 101.47 145.079 105.975C128.708 110.479 119.089 127.402 123.593 143.773C128.098 160.144 145.021 169.764 161.392 165.259Z" fill="#1DD9B3" fill-opacity="0.75"/>
<path fill-rule="evenodd" clip-rule="evenodd" d="M146.565 201.695C164.14 196.859 174.467 178.692 169.631 161.117C164.795 143.542 146.627 133.215 129.053 138.051C111.478 142.887 101.151 161.054 105.987 178.629C110.822 196.204 128.99 206.531 146.565 201.695ZM145.965 199.515C162.336 195.011 171.956 178.088 167.451 161.717C162.946 145.345 146.023 135.726 129.652 140.23C113.281 144.735 103.662 161.658 108.166 178.029C112.671 194.4 129.594 204.02 145.965 199.515Z" fill="#1DD9B3" fill-opacity="0.5"/>
</g>
</svg>
