<svg width="1707" height="1200" viewBox="0 0 1707 1200" fill="none" xmlns="http://www.w3.org/2000/svg">
<g clip-path="url(#clip0_138_686)">
<path d="M565.271 782.986C565.271 782.986 565.313 782.948 565.342 782.928C567.467 781.302 570.549 781.866 572.161 784.008C572.88 784.963 573.6 785.918 574.332 786.856C575.37 788.222 576.43 789.578 577.499 790.94C698.158 943.805 919.896 969.918 1072.76 849.26C1073.51 848.665 1074.27 848.076 1075 847.467C1076.09 846.601 1077.17 845.722 1078.25 844.843C1080.31 843.154 1083.42 843.307 1085.1 845.384C1085.11 845.398 1085.12 845.405 1085.13 845.427C1085.84 846.313 1086.22 847.353 1086.31 848.417C1086.43 849.956 1085.71 851.441 1084.51 852.424C1083.61 853.168 1082.69 853.914 1081.76 854.645C1080.79 855.422 1079.82 856.199 1078.85 856.976C921.721 981.001 693.793 954.161 569.775 797.023C568.553 795.474 567.355 793.93 566.172 792.368C565.525 791.538 564.901 790.698 564.271 789.866C563.085 788.288 562.903 786.112 563.959 784.431C564.301 783.89 564.751 783.391 565.284 782.968L565.271 782.986Z" fill="url(#paint0_linear_138_686)" fill-opacity="0.8"/>
<path d="M816.555 241.156C816.555 241.156 816.566 241.211 816.568 241.242C816.987 243.89 815.023 246.329 812.373 246.716C811.197 246.891 810.014 247.075 808.839 247.266C807.139 247.533 805.44 247.816 803.742 248.114C611.864 281.433 483.336 463.999 516.655 655.876C516.814 656.816 516.982 657.763 517.173 658.7C517.425 660.076 517.669 661.446 517.936 662.805C518.44 665.424 516.816 668.085 514.197 668.573C514.181 668.574 514.158 668.583 514.142 668.584C513.023 668.78 511.928 668.625 510.956 668.192C509.543 667.568 508.58 666.225 508.286 664.708C508.065 663.551 507.843 662.394 507.637 661.236C507.411 660.017 507.193 658.788 506.982 657.567C472.727 460.337 604.844 272.687 802.074 238.432C804.015 238.093 805.95 237.779 807.877 237.473C808.911 237.307 809.953 237.149 810.988 236.999C812.941 236.715 814.949 237.591 815.913 239.307C816.229 239.864 816.454 240.49 816.571 241.171L816.555 241.156Z" fill="url(#paint1_linear_138_686)" fill-opacity="0.8"/>
<path d="M1172.9 723.317C1172.9 723.317 1172.84 723.298 1172.82 723.292C1170.3 722.366 1169.12 719.473 1170.07 716.969C1170.49 715.853 1170.9 714.738 1171.31 713.607C1171.9 711.992 1172.48 710.377 1173.05 708.741C1237.14 524.846 1140.01 323.798 956.108 259.715C955.208 259.399 954.3 259.091 953.392 258.783C952.067 258.33 950.75 257.884 949.435 257.453C946.894 256.624 945.36 253.913 946.206 251.387C946.22 251.37 946.219 251.354 946.225 251.33C946.597 250.258 947.264 249.373 948.119 248.734C949.353 247.799 950.994 247.614 952.465 248.102C953.585 248.47 954.704 248.838 955.817 249.215C956.995 249.618 958.164 250.014 959.342 250.417C1148.37 316.296 1248.21 522.933 1182.33 711.976C1181.68 713.834 1181.02 715.67 1180.35 717.514C1179.99 718.498 1179.63 719.49 1179.25 720.459C1178.55 722.306 1176.82 723.635 1174.84 723.644C1174.2 723.645 1173.54 723.545 1172.89 723.31L1172.9 723.317Z" fill="url(#paint2_linear_138_686)" fill-opacity="0.8"/>
<path d="M1083.85 927.056C1083.85 927.056 1083.81 926.997 1083.78 926.975C1081.9 924.365 1082.67 920.698 1085.3 918.843C1086.47 918.018 1087.64 917.178 1088.79 916.34C1090.46 915.135 1092.12 913.908 1093.78 912.673C1281.13 772.982 1319.76 507.858 1180.07 320.509C1179.38 319.597 1178.69 318.67 1177.99 317.76C1176.98 316.414 1175.96 315.093 1174.95 313.771C1172.98 311.241 1173.28 307.515 1175.83 305.58C1175.84 305.563 1175.86 305.553 1175.89 305.542C1176.97 304.726 1178.24 304.296 1179.51 304.231C1181.36 304.129 1183.12 305.06 1184.25 306.52C1185.12 307.635 1185.98 308.758 1186.83 309.89C1187.74 311.081 1188.64 312.264 1189.52 313.464C1333.12 506.043 1293.4 778.555 1100.82 922.153C1098.92 923.564 1097.03 924.951 1095.12 926.315C1094.11 927.06 1093.08 927.782 1092.06 928.511C1090.13 929.879 1087.51 930.033 1085.53 928.703C1084.89 928.271 1084.32 927.721 1083.83 927.066L1083.85 927.056Z" fill="url(#paint3_linear_138_686)" fill-opacity="0.7"/>
<path d="M423.983 641.624C423.983 641.624 424.053 641.609 424.084 641.605C427.243 640.98 430.249 643.217 430.842 646.379C431.104 647.781 431.374 649.191 431.66 650.598C432.052 652.622 432.475 654.643 432.907 656.67C481.75 885.205 706.611 1030.88 935.146 982.036C936.257 981.798 937.399 981.556 938.507 981.287C940.145 980.928 941.774 980.563 943.402 980.182C946.518 979.45 949.781 981.277 950.481 984.396C950.492 984.419 950.486 984.444 950.497 984.466C950.783 985.802 950.647 987.128 950.178 988.315C949.497 990.033 947.927 991.25 946.121 991.674C944.741 991.997 943.368 992.311 941.987 992.618C940.535 992.941 939.077 993.272 937.615 993.572C702.702 1043.77 471.573 894.036 421.37 659.123C420.877 656.816 420.407 654.515 419.954 652.211C419.702 650.975 419.466 649.737 419.238 648.506C418.806 646.176 419.759 643.73 421.779 642.488C422.435 642.084 423.182 641.781 423.981 641.608L423.983 641.624Z" fill="url(#paint4_linear_138_686)" fill-opacity="0.7"/>
<path d="M1015.98 193.982C1015.98 193.982 1015.96 194.049 1015.94 194.082C1014.89 197.126 1011.44 198.593 1008.41 197.512C1007.07 197.028 1005.71 196.554 1004.36 196.095C1002.41 195.414 1000.46 194.757 998.481 194.111C776.443 121.214 537.345 242.117 464.456 464.146C464.095 465.233 463.744 466.328 463.408 467.421C462.896 469.017 462.391 470.605 461.895 472.2C460.951 475.257 457.731 477.168 454.679 476.2C454.662 476.186 454.631 476.189 454.613 476.175C453.32 475.75 452.243 474.967 451.451 473.956C450.301 472.498 450.051 470.53 450.591 468.756C451.003 467.408 451.431 466.059 451.858 464.71C452.31 463.295 452.769 461.871 453.228 460.447C528.162 232.216 773.923 107.945 1002.15 182.879C1004.4 183.615 1006.62 184.37 1008.84 185.141C1010.04 185.545 1011.22 185.967 1012.4 186.388C1014.63 187.182 1016.26 189.241 1016.31 191.61C1016.33 192.387 1016.22 193.17 1015.96 193.953L1015.98 193.982Z" fill="url(#paint5_linear_138_686)" fill-opacity="0.7"/>
</g>
<g clip-path="url(#clip1_138_686)">
<path d="M720.025 1098.13C718.208 1099.32 716.167 1099.27 715.467 1098.03C714.766 1096.78 715.671 1094.82 717.489 1093.64C718.209 1093.15 719.026 1092.86 719.872 1092.79L727.629 1087.88L729.696 1091.84L721.829 1096.26C721.376 1097.03 720.757 1097.67 720.025 1098.13L720.025 1098.13Z" fill="#FFB6B6"/>
<path d="M738.54 1109L735.713 1091.75L723.916 1094.94L720.706 1091.81C720.706 1091.81 732.789 1078.91 738.182 1082.23C743.576 1085.55 750.158 1104.08 747.153 1108.42C744.147 1112.76 738.54 1109 738.54 1109V1109Z" fill="#E6E6E6"/>
<path d="M710.51 1092.03C711.66 1093.95 711.671 1096.15 710.534 1096.93C709.398 1097.72 707.544 1096.8 706.393 1094.88C705.924 1094.12 705.631 1093.25 705.538 1092.34L700.76 1084.15L704.388 1081.82L708.714 1090.15C709.444 1090.61 710.06 1091.26 710.51 1092.03V1092.03Z" fill="#A0616A"/>
<path d="M678.953 1082.34L694.437 1071.74C694.437 1071.74 697.862 1069.58 701.369 1075C704.877 1080.43 708.251 1088.68 708.251 1088.68L704.666 1091.19L700.822 1085.07C700.822 1085.07 698.172 1082.98 698.163 1082.1C698.153 1081.22 698.808 1081.03 697.823 1081.05C696.838 1081.06 696.68 1081.64 696.834 1080.73C696.988 1079.82 697.8 1078.93 696.494 1079.65C695.188 1080.37 695.016 1079.67 695.016 1079.67L684.604 1088.62C684.604 1088.62 678.56 1091.52 678.022 1087.29C677.483 1083.07 678.953 1082.34 678.953 1082.34L678.953 1082.34Z" fill="#019298"/>
<path d="M765.822 1006.64L761.087 1005.35L754.187 1024.35L761.175 1026.26L765.822 1006.64Z" fill="#FFB6B6"/>
<path d="M749.574 1002.32C749.489 1002.01 749.615 1001.13 749.689 1000.82C749.915 999.869 750.817 999.293 751.705 999.535L766.367 1003.54C766.973 1003.71 767.339 1004.37 767.185 1005.02L767.029 1005.68C767.029 1005.68 767.288 1007.85 765.219 1009.87C765.219 1009.87 763.813 1007.46 760.334 1009.68L759.139 1011.05L754.321 1004.78L751.142 1003.45C750.447 1003.16 749.785 1003.09 749.574 1002.32L749.574 1002.32Z" fill="#2F2E41"/>
<path d="M689.804 1082.26L678.07 1079.05L673.657 1097.68L685.391 1100.88L689.804 1082.26Z" fill="#2F2E41"/>
<path d="M679.359 1085.45L678.506 1090.9L683.969 1092.39L686.519 1087.07L679.359 1085.45Z" fill="#A0616A"/>
<path opacity="0.1" d="M679.359 1085.45L678.506 1090.9L683.969 1092.39L686.519 1087.07L679.359 1085.45Z" fill="black"/>
<path d="M738.04 1107.81L736.319 1114.64L739.632 1118.35L745.247 1113.9L738.04 1107.81Z" fill="#FFB6B6"/>
<path opacity="0.1" d="M738.04 1107.81L736.2 1114.42L739.632 1118.35L740.201 1109.69L738.04 1107.81Z" fill="black"/>
<path d="M682.5 1090.18C679.201 1089.28 675.847 1091.42 675.008 1094.96C674.168 1098.51 676.161 1102.11 679.46 1103.01C682.758 1103.92 686.112 1101.77 686.952 1098.23C687.791 1094.69 685.798 1091.08 682.5 1090.18Z" fill="#A0616A"/>
<path d="M680.887 1103.76C680.887 1103.76 680.263 1106.39 678.12 1105.21C675.977 1104.02 675.5 1102.89 675.5 1102.89C675.5 1102.89 674.981 1101.14 673.624 1100.57C672.268 1100 672.067 1095.34 672.465 1094.44C672.863 1093.55 674.318 1091.35 673.36 1089.88C672.401 1088.42 671.051 1086.25 671.978 1084.7C672.904 1083.15 675.505 1079.25 675.505 1079.25C675.505 1079.25 671.273 1077.36 672.33 1074.51C672.33 1074.51 674.025 1076.84 676.827 1077.61C679.629 1078.37 677.985 1083.74 677.985 1083.74C677.985 1083.74 677.359 1087.17 677.661 1088.25C677.964 1089.34 676.015 1094.41 677.973 1097.95C679.932 1101.49 680.887 1103.76 680.887 1103.76L680.887 1103.76Z" fill="#2F2E41"/>
<path d="M680.053 1104.13C680.053 1104.13 683.558 1104.29 685.631 1101.05C687.704 1097.81 687.242 1096.98 687.242 1096.98C687.242 1096.98 688.023 1094.9 689.69 1094.55C691.356 1094.2 690.888 1090.67 690.888 1090.67C690.888 1090.67 691.996 1087.57 696.992 1087.73C701.988 1087.89 693.381 1076.32 693.381 1076.32C693.381 1076.32 693.179 1080.62 688.231 1079.47C683.283 1078.31 686.86 1089.57 686.86 1089.57L685.915 1095.92C685.915 1095.92 683.17 1102.78 679.795 1102.86C676.42 1102.94 680.053 1104.13 680.053 1104.13L680.053 1104.13Z" fill="#2F2E41"/>
<path d="M736.908 1112.53C733.04 1111.47 729.106 1113.98 728.122 1118.14C727.137 1122.29 729.475 1126.52 733.343 1127.58C737.211 1128.63 741.144 1126.12 742.129 1121.97C743.113 1117.81 740.776 1113.58 736.908 1112.53Z" fill="#FFB6B6"/>
<path d="M739.224 1059.83L757.048 1013.92L765.233 1016.15L757.695 1043.08L753.73 1057.24L753.777 1064.51C753.777 1064.51 754.176 1066.23 754.379 1068.24C754.607 1070.51 754.587 1073.15 753.464 1074.09C753.051 1074.44 752.168 1074.55 751.015 1074.48C750.31 1074.45 749.504 1074.35 748.641 1074.21C743.678 1073.4 736.869 1071.2 736.869 1071.2L738.164 1064.94L738.888 1061.45L739.224 1059.83V1059.83Z" fill="#2F2E41"/>
<path d="M790.979 1021.61L787.378 1018.06L772.928 1031.3L778.242 1036.53L790.979 1021.61Z" fill="#FFB6B6"/>
<path d="M778.569 1009.54C778.63 1009.23 779.129 1008.52 779.331 1008.28C779.95 1007.56 780.999 1007.51 781.674 1008.17L792.824 1019.16C793.284 1019.61 793.315 1020.38 792.893 1020.88L792.467 1021.38C792.467 1021.38 791.739 1023.42 789.026 1024.15C789.026 1024.15 788.85 1021.31 784.806 1021.5L783.151 1022.1L781.669 1014.12L779.455 1011.33C778.971 1010.72 778.416 1010.33 778.569 1009.54L778.569 1009.54V1009.54Z" fill="#2F2E41"/>
<path d="M738.888 1061.45L744.118 1054.94L757.695 1043.08L780.046 1023.56L786.27 1029.69L758.037 1060.04L754.874 1066.46C754.874 1066.46 754.699 1067.2 754.379 1068.24C753.747 1070.29 752.547 1073.51 751.015 1074.48C750.807 1074.62 750.594 1074.71 750.376 1074.75C749.967 1074.83 749.366 1074.62 748.641 1074.21C745.613 1072.5 740.438 1067.3 738.164 1064.94L738.888 1061.45L738.888 1061.45Z" fill="#2F2E41"/>
<path d="M702.741 988.756L706.812 989.869L704.752 1007.27L698.743 1005.62L702.741 988.756Z" fill="#A0616A"/>
<path d="M716.665 992.669C716.846 992.474 717.088 991.752 717.151 991.486C717.345 990.666 716.884 989.832 716.121 989.623L703.514 986.176C702.994 986.034 702.464 986.372 702.332 986.931L702.198 987.495C702.198 987.495 701.173 989.019 701.962 991.459C701.962 991.459 703.945 990.26 705.723 993.474L706.102 995.034L712.14 992.427L715.049 992.825C715.686 992.913 716.211 993.156 716.665 992.669L716.665 992.669L716.665 992.669Z" fill="#2F2E41"/>
<path d="M685.483 989.525L689.641 988.886L693.915 1005.81L687.777 1006.76L685.483 989.525Z" fill="#A0616A"/>
<path d="M699.743 987.436C699.842 987.182 699.809 986.415 699.773 986.143C699.661 985.305 698.939 984.724 698.16 984.843L685.282 986.823C684.75 986.905 684.381 987.434 684.457 988.006L684.534 988.581C684.534 988.581 684.127 990.411 685.723 992.343C685.723 992.343 687.13 990.421 689.915 992.664L690.819 993.951L695.475 989.067L698.306 988.243C698.925 988.062 699.497 988.073 699.743 987.436L699.743 987.436L699.743 987.436Z" fill="#2F2E41"/>
<path d="M687.163 1046.11L690.439 1039.75L692.616 1028.57L696.234 1010.01L696.336 1009.48L696.742 1007.4L698.62 997.756L706.805 999.995L704.138 1027.63L702.029 1049.47L699.187 1060.11L699.038 1060.67C699.038 1060.67 684.237 1057.35 683.172 1054.69C682.107 1052.03 687.163 1046.11 687.163 1046.11L687.163 1046.11Z" fill="#2F2E41"/>
<path d="M685.607 1001.5L687.177 1001.11L692.985 999.656L693.835 999.444L696.742 1007.4L704.138 1027.63L702.029 1049.47L699.187 1060.11C697.787 1060.2 696.708 1060.1 696.245 1059.69C694.162 1057.86 696.12 1050.1 696.12 1050.1L696.308 1042.83L692.616 1028.57L685.607 1001.5V1001.5Z" fill="#2F2E41"/>
<path d="M715.701 1007.49C715.725 1007.86 716.559 1007.93 716.562 1008.26C716.566 1008.59 715.738 1008.64 714.945 1009.35C714.802 1009.47 713.9 1010.28 714.057 1010.77C714.356 1011.69 718.198 1010.65 718.748 1011.97C718.868 1012.26 718.843 1012.7 719.19 1013.61C719.328 1013.98 719.429 1014.16 719.591 1014.2C719.822 1014.26 719.977 1013.97 720.47 1013.51C721.209 1012.82 721.379 1012.98 721.897 1012.39C722.282 1011.96 722.391 1011.64 722.586 1011.67C722.862 1011.72 722.823 1012.38 723.147 1012.5C723.478 1012.62 723.963 1012.08 724.245 1011.64C724.776 1010.81 724.749 1010.05 724.871 1009.34C725.005 1008.57 725.378 1007.48 726.486 1006.26L736.681 995.832C734.523 997.937 728.466 1003.63 726.085 1005.67C725.397 1006.26 724.671 1006.85 723.787 1006.75C722.937 1006.66 722.043 1005.95 720.646 1005.6C720.483 1005.56 720.028 1005.45 719.857 1005.68C719.716 1005.86 719.897 1006.11 719.768 1006.29C719.594 1006.53 719.126 1006.28 718.408 1006.27C717.902 1006.26 717.53 1006.38 717.209 1006.49C717.112 1006.52 715.67 1006.99 715.701 1007.49L715.701 1007.49V1007.49Z" fill="#F2F2F2"/>
<path d="M735.387 1009.78C735.565 1009.88 735.836 1009.46 735.988 1009.55C736.139 1009.65 735.923 1010.1 736.018 1010.72C736.035 1010.83 736.143 1011.54 736.41 1011.6C736.917 1011.7 737.551 1009.38 738.314 1009.47C738.481 1009.49 738.673 1009.63 739.192 1009.71C739.398 1009.74 739.512 1009.74 739.577 1009.67C739.669 1009.56 739.584 1009.4 739.516 1009.01C739.414 1008.42 739.535 1008.38 739.416 1007.93C739.328 1007.6 739.214 1007.45 739.285 1007.36C739.386 1007.23 739.679 1007.44 739.825 1007.3C739.974 1007.16 739.869 1006.75 739.748 1006.48C739.521 1005.96 739.168 1005.75 738.878 1005.48C738.563 1005.19 738.176 1004.68 737.939 1003.74L736.115 995.359C736.454 997.104 737.307 1001.94 737.554 1003.79C737.625 1004.32 737.682 1004.87 737.384 1005.31C737.097 1005.73 736.516 1006 735.951 1006.63C735.885 1006.71 735.703 1006.91 735.758 1007.07C735.803 1007.2 735.968 1007.17 736.012 1007.29C736.071 1007.45 735.821 1007.63 735.611 1008C735.463 1008.27 735.41 1008.5 735.364 1008.7C735.35 1008.76 735.15 1009.66 735.387 1009.78L735.387 1009.78V1009.78Z" fill="#F2F2F2"/>
<path d="M732.244 1007L731.867 1008.09L731.782 1008.14C731.385 1008.37 731.104 1008.66 730.946 1009C730.921 1009.05 730.898 1009.1 730.875 1009.16C730.783 1009.38 730.669 1009.65 730.393 1009.89C730.239 1010.02 729.847 1010.31 729.564 1010.1C729.488 1010.04 729.445 1009.97 729.42 1009.89C729.407 1009.9 729.395 1009.91 729.381 1009.92C729.212 1010.02 729.105 1010.05 729.002 1010.07C728.923 1010.09 728.841 1010.11 728.693 1010.18C728.629 1010.21 728.576 1010.24 728.531 1010.27C728.396 1010.34 728.226 1010.43 728.045 1010.33C727.855 1010.21 727.835 1009.98 727.821 1009.83C727.797 1009.56 727.811 1009.39 727.821 1009.27C727.825 1009.22 727.829 1009.18 727.827 1009.16C727.811 1009.03 727.257 1008.84 727.049 1008.77C726.581 1008.61 726.175 1008.48 726.159 1008.1C726.148 1007.83 726.36 1007.6 726.808 1007.39C726.948 1007.33 727.08 1007.29 727.194 1007.27C727.146 1007.19 727.117 1007.09 727.142 1006.97C727.201 1006.69 727.518 1006.55 728.083 1006.55C728.224 1006.55 728.413 1006.55 728.643 1006.63C728.751 1006.66 728.842 1006.71 728.92 1006.75C728.944 1006.7 728.979 1006.66 729.031 1006.62C729.184 1006.5 729.383 1006.52 729.623 1006.67C729.889 1006.84 730.088 1007.01 730.263 1007.17C730.416 1007.31 730.549 1007.43 730.67 1007.48C730.896 1007.58 731.152 1007.48 731.463 1007.35L732.244 1007L732.244 1007L732.244 1007Z" fill="#F2F2F2"/>
<path d="M728.866 1012.84L729.938 1012.96L730.006 1013.04C730.32 1013.39 730.651 1013.61 730.991 1013.69C731.045 1013.7 731.1 1013.71 731.156 1013.72C731.376 1013.76 731.651 1013.81 731.937 1014.03C732.096 1014.16 732.457 1014.49 732.334 1014.84C732.302 1014.94 732.246 1015 732.186 1015.05C732.196 1015.06 732.207 1015.07 732.218 1015.08C732.355 1015.23 732.405 1015.33 732.454 1015.43C732.491 1015.51 732.53 1015.59 732.632 1015.73C732.677 1015.79 732.717 1015.83 732.751 1015.87C732.853 1015.99 732.973 1016.15 732.927 1016.36C732.871 1016.59 732.67 1016.67 732.538 1016.72C732.301 1016.82 732.138 1016.85 732.029 1016.87C731.99 1016.87 731.945 1016.88 731.931 1016.89C731.815 1016.94 731.789 1017.56 731.778 1017.79C731.755 1018.32 731.735 1018.78 731.4 1018.89C731.161 1018.97 730.898 1018.81 730.598 1018.39C730.505 1018.26 730.44 1018.14 730.392 1018.02C730.331 1018.09 730.249 1018.15 730.136 1018.15C729.868 1018.16 729.661 1017.87 729.518 1017.28C729.483 1017.14 729.435 1016.94 729.445 1016.68C729.45 1016.56 729.467 1016.45 729.482 1016.36C729.434 1016.35 729.384 1016.32 729.336 1016.28C729.195 1016.15 729.158 1015.94 729.235 1015.65C729.315 1015.33 729.426 1015.08 729.523 1014.86C729.607 1014.66 729.679 1014.5 729.698 1014.36C729.73 1014.1 729.579 1013.86 729.378 1013.57L728.866 1012.84L728.866 1012.84L728.866 1012.84Z" fill="#F2F2F2"/>
<path d="M727.937 1016.14L727.56 1017.22L727.474 1017.28C727.078 1017.51 726.797 1017.8 726.638 1018.13C726.613 1018.19 726.591 1018.24 726.567 1018.3C726.476 1018.52 726.362 1018.79 726.086 1019.03C725.932 1019.16 725.54 1019.45 725.257 1019.24C725.181 1019.18 725.137 1019.1 725.113 1019.03C725.1 1019.04 725.087 1019.05 725.074 1019.06C724.905 1019.16 724.798 1019.19 724.695 1019.21C724.615 1019.23 724.534 1019.25 724.386 1019.32C724.321 1019.35 724.269 1019.38 724.224 1019.41C724.089 1019.48 723.919 1019.57 723.738 1019.47C723.548 1019.35 723.527 1019.12 723.514 1018.97C723.489 1018.7 723.504 1018.52 723.514 1018.41C723.517 1018.36 723.521 1018.32 723.52 1018.3C723.504 1018.17 722.95 1017.98 722.741 1017.91C722.273 1017.75 721.868 1017.62 721.852 1017.24C721.84 1016.97 722.053 1016.74 722.501 1016.53C722.64 1016.47 722.773 1016.43 722.886 1016.41C722.839 1016.33 722.81 1016.23 722.834 1016.11C722.894 1015.83 723.21 1015.69 723.776 1015.69C723.917 1015.69 724.106 1015.69 724.335 1015.77C724.443 1015.8 724.535 1015.85 724.613 1015.89C724.637 1015.84 724.671 1015.79 724.723 1015.76C724.876 1015.64 725.076 1015.66 725.316 1015.81C725.582 1015.98 725.781 1016.15 725.956 1016.31C726.109 1016.45 726.241 1016.57 726.363 1016.62C726.589 1016.72 726.845 1016.62 727.155 1016.49L727.937 1016.14L727.937 1016.14V1016.14Z" fill="#F2F2F2"/>
<path d="M736.353 995.675L736.49 995.918L736.421 996.193L736.49 995.918L736.737 996.017C736.729 996.042 736.717 996.102 736.697 996.197C736.585 996.713 736.245 998.283 735.474 1000.63C734.935 1002.27 734.296 1003.9 733.573 1005.49C732.85 1007.09 732.216 1008.25 731.706 1009.18C731.322 1009.88 730.945 1010.54 730.577 1011.19C729.595 1012.92 728.668 1014.55 727.876 1016.48C727.698 1016.91 727.33 1017.81 727.367 1019C727.389 1019.69 727.543 1020.37 727.826 1021.03L727.344 1021.27C727.032 1020.54 726.862 1019.78 726.838 1019.02C726.797 1017.7 727.198 1016.72 727.391 1016.25C728.198 1014.28 729.134 1012.64 730.125 1010.89C730.491 1010.25 730.867 1009.59 731.249 1008.89C731.754 1007.97 732.383 1006.82 733.097 1005.24C733.811 1003.67 734.442 1002.06 734.974 1000.44C735.736 998.123 736.07 996.576 736.18 996.068C736.239 995.796 736.251 995.74 736.353 995.674L736.353 995.675L736.353 995.675Z" fill="#F2F2F2"/>
<path d="M729.073 1020.7C729.092 1020.71 729.111 1020.72 729.131 1020.73C729.522 1020.98 729.773 1021.44 729.876 1022.11C729.924 1022.42 729.881 1022.72 729.794 1023.33C729.781 1023.43 729.709 1023.9 729.518 1024.5C729.393 1024.89 729.315 1025.04 729.183 1025.14C729.037 1025.25 728.866 1025.29 728.696 1025.29C728.679 1025.34 728.651 1025.38 728.607 1025.42C728.427 1025.59 728.226 1025.45 728.116 1025.37C728.061 1025.33 727.993 1025.28 727.912 1025.24C727.785 1025.18 727.7 1025.19 727.57 1025.19C727.447 1025.19 727.293 1025.2 727.096 1025.14C726.707 1025.03 726.463 1024.76 726.383 1024.67C725.958 1024.21 725.907 1023.65 725.848 1023C725.837 1022.87 725.807 1022.4 725.909 1021.83C725.982 1021.42 726.07 1021.27 726.154 1021.17C726.327 1020.96 726.53 1020.89 727.023 1020.78C727.538 1020.65 727.796 1020.59 727.999 1020.58C728.472 1020.55 728.768 1020.53 729.073 1020.7L729.073 1020.7V1020.7Z" fill="#F2F2F2"/>
<path d="M676.623 978.776C676.649 978.665 676.754 978.598 676.857 978.627L806.294 1014.02L806.198 1014.42L676.762 979.028C676.659 979 676.597 978.887 676.623 978.776V978.776Z" fill="#E6E6E6"/>
<path d="M744.366 1109.07L737.382 1102.79C737.382 1102.79 735.307 1073.64 735.631 1072.28C735.955 1070.91 733.771 1069.4 735.568 1068.25C737.364 1067.11 733.575 1064.68 736.074 1064.06C738.573 1063.43 753.94 1060.48 755.328 1061.5C759.156 1064.33 753.297 1069.27 753.297 1069.27C753.297 1069.27 755.82 1072.88 755.018 1074.12C754.217 1075.36 751.362 1102.42 751.362 1102.42L744.366 1109.07L744.366 1109.07Z" fill="#E6E6E6"/>
<path d="M735.98 1118.37L735.538 1116.18C735.538 1116.18 733.812 1119.42 732.187 1119.8C730.562 1120.18 730.107 1121.29 730.107 1121.29C730.107 1121.29 728.901 1118.29 727.503 1118.52C726.104 1118.76 725.472 1119 726.363 1121.71C727.254 1124.43 727.169 1123.17 727.169 1123.17C727.169 1123.17 727.971 1125.45 727.929 1124.82C727.886 1124.19 728.643 1126.66 728.78 1126.08C728.918 1125.5 729.406 1127.49 729.544 1126.91C729.681 1126.33 733.006 1129.3 732.649 1128.38C732.292 1127.46 735.525 1130.81 738.06 1128.21C740.596 1125.6 742.958 1126.86 742.527 1124.69C742.096 1122.51 743.694 1117.38 743.694 1117.38L741.209 1116.7C741.209 1116.7 737.412 1121.23 735.98 1118.37L735.98 1118.37Z" fill="#2F2E41"/>
<path d="M686.845 1087.46L686.689 1087.46L678.999 1087.68L675.255 1077.74L683.205 1061.35L683.434 1053.94C683.434 1053.94 694.28 1060.37 699.543 1058.9C699.543 1058.9 699.492 1060.54 698.994 1061.21C698.496 1061.89 697.27 1064.91 697.412 1066.46C697.555 1068 694.544 1074.27 694.544 1074.27C694.544 1074.27 693.968 1078.85 691.373 1080.51C688.778 1082.16 686.845 1087.46 686.845 1087.46V1087.46Z" fill="#019298"/>
<path d="M700.82 1057.76L722.84 1078.11C722.95 1078.21 723.038 1078.33 723.101 1078.47L725.855 1084.53C726.037 1084.93 725.983 1085.41 725.717 1085.75L714.403 1100.36C714.205 1100.62 713.913 1100.77 713.603 1100.77C713.293 1100.77 712.998 1100.63 712.794 1100.38L698.119 1082.42C697.818 1082.05 697.771 1081.52 698.001 1081.1L704.808 1068.59C704.994 1068.25 704.963 1067.81 704.732 1067.5L698.955 1059.8C698.644 1059.38 698.645 1058.78 698.957 1058.37L699.308 1057.9C699.489 1057.66 699.748 1057.51 700.035 1057.48C700.157 1057.47 700.277 1057.48 700.392 1057.52C700.548 1057.56 700.694 1057.64 700.82 1057.76L700.82 1057.76Z" fill="#019298"/>
<path d="M700.245 1061.09L705.777 1069.28C705.824 1069.35 705.856 1069.43 705.872 1069.51C705.903 1069.67 705.876 1069.84 705.793 1069.98L698.816 1081.45C698.635 1081.75 698.661 1082.14 698.879 1082.41L712.636 1099.22C712.776 1099.39 712.98 1099.49 713.194 1099.49C713.41 1099.49 713.612 1099.38 713.751 1099.21L724.405 1085.81C724.566 1085.61 724.621 1085.34 724.556 1085.09C724.549 1085.05 724.538 1085.02 724.524 1084.98L722.178 1079.01C722.132 1078.9 722.062 1078.79 721.974 1078.71L701.318 1060.01C701.231 1059.94 701.131 1059.88 701.024 1059.85C700.839 1059.8 700.637 1059.83 700.465 1059.94C700.444 1059.95 700.424 1059.97 700.403 1059.98C700.258 1060.1 700.156 1060.27 700.119 1060.46C700.078 1060.68 700.124 1060.91 700.245 1061.09V1061.09Z" fill="#F2F2F2"/>
<path d="M721.419 1085.99C721.36 1085.98 721.296 1086 721.254 1086.05L712.655 1096.67C712.596 1096.75 712.603 1096.86 712.671 1096.92C712.74 1096.99 712.844 1096.98 712.903 1096.91L721.502 1086.28C721.561 1086.21 721.554 1086.09 721.486 1086.03C721.466 1086.01 721.443 1086 721.419 1085.99V1085.99Z" fill="#6C63FF"/>
<path d="M718.881 1083.11C718.823 1083.1 718.759 1083.12 718.717 1083.17L710.118 1093.8C710.058 1093.87 710.066 1093.98 710.134 1094.05C710.203 1094.11 710.306 1094.1 710.366 1094.03L718.964 1083.4C719.024 1083.33 719.017 1083.22 718.948 1083.15C718.928 1083.13 718.905 1083.12 718.881 1083.11V1083.11Z" fill="#6C63FF"/>
<path d="M716.74 1080.71C716.682 1080.69 716.618 1080.71 716.576 1080.76L707.977 1091.39C707.917 1091.46 707.925 1091.58 707.993 1091.64C708.062 1091.7 708.165 1091.7 708.225 1091.62L716.823 1080.99C716.883 1080.92 716.876 1080.81 716.807 1080.75C716.787 1080.73 716.764 1080.71 716.74 1080.71L716.74 1080.71Z" fill="#6C63FF"/>
<path d="M725.362 1084.82C723.239 1084.91 721.477 1083.8 721.426 1082.35C721.374 1080.9 723.054 1079.65 725.178 1079.57C726.026 1079.52 726.872 1079.69 727.645 1080.07L736.645 1079.82L736.662 1084.36L727.788 1084.12C727.043 1084.56 726.212 1084.8 725.362 1084.82Z" fill="#FFB6B6"/>
<path d="M736.64 1103.98L741.963 1087.42L730.206 1084.06L728.815 1079.65C728.815 1079.65 745.21 1074.67 748.425 1080.39C751.64 1086.1 749.021 1105.74 744.431 1107.96C739.841 1110.19 736.64 1103.98 736.64 1103.98V1103.98Z" fill="#E6E6E6"/>
<path d="M705.255 1062.88C707.269 1063.6 708.552 1065.31 708.12 1066.69C707.689 1068.06 705.708 1068.59 703.693 1067.86C702.885 1067.58 702.15 1067.1 701.551 1066.45L693.055 1063.25L694.537 1059L702.756 1062.61C703.597 1062.48 704.454 1062.57 705.255 1062.88Z" fill="#A0616A"/>
<path d="M674.971 1076.47L680.906 1057.8C680.906 1057.8 682.326 1053.82 688.219 1055.7C694.111 1057.59 701.54 1061.77 701.54 1061.77L700.201 1066.14L693.638 1063.93C693.638 1063.93 690.357 1064.08 689.837 1063.4C689.317 1062.72 689.722 1062.13 688.959 1062.8C688.197 1063.47 688.414 1064.04 688.005 1063.22C687.596 1062.41 687.711 1061.16 687.111 1062.6C686.51 1064.04 685.967 1063.61 685.967 1063.61L683.035 1077.59C683.035 1077.59 679.998 1083.9 677.121 1080.96C674.243 1078.02 674.971 1076.47 674.971 1076.47V1076.47Z" fill="#019298"/>
</g>
<g clip-path="url(#clip2_138_686)">
<path d="M815.927 111.335L819.408 147.077L826.037 156.2L826.541 156.893L848.953 154.442L844.904 108.165L815.927 111.335Z" fill="#E6E6E6"/>
<path opacity="0.1" d="M815.927 111.335L819.408 147.077L826.037 156.2L821.955 110.676L815.927 111.335Z" fill="black"/>
<path d="M761.728 116.3L765.209 152.043L760.478 162.407L760.118 163.196L737.706 165.647L732.751 119.47L761.728 116.3Z" fill="#E6E6E6"/>
<path opacity="0.1" d="M761.728 116.3L765.209 152.043L760.478 162.407L755.7 116.959L761.728 116.3Z" fill="black"/>
<path d="M851.533 105.755L851.742 107.899L729.947 121.222L729.646 118.124L740.361 110.69L840.876 99.6955L851.533 105.755Z" fill="#E6E6E6"/>
<path opacity="0.1" d="M851.533 105.755L851.742 107.899L729.947 121.221L729.646 118.124L851.533 105.755Z" fill="black"/>
<path d="M748.214 127.893L742.781 128.487L740.355 127.067L750.542 125.953L748.214 127.893Z" fill="#3F3D56"/>
<path d="M748.887 134.803L743.454 135.398L741.028 133.977L751.215 132.863L748.887 134.803Z" fill="#3F3D56"/>
<path d="M749.839 144.573L744.406 145.167L741.979 143.747L752.167 142.632L749.839 144.573Z" fill="#3F3D56"/>
<path d="M750.79 154.343L745.357 154.937L742.931 153.517L753.118 152.402L750.79 154.343Z" fill="#3F3D56"/>
<path d="M831.39 119.758L836.823 119.164L838.925 117.248L828.737 118.362L831.39 119.758Z" fill="#3F3D56"/>
<path d="M832.063 126.668L837.496 126.074L839.598 124.158L829.41 125.273L832.063 126.668Z" fill="#3F3D56"/>
<path d="M833.014 136.438L838.448 135.844L840.549 133.928L830.362 135.042L833.014 136.438Z" fill="#3F3D56"/>
<path d="M833.966 146.208L839.399 145.613L841.5 143.698L831.313 144.812L833.966 146.208Z" fill="#3F3D56"/>
<path d="M829.231 59.1961L783.491 64.1995C783.264 64.2243 783.043 64.296 782.842 64.4104C782.641 64.5249 782.464 64.6798 782.32 64.8665C782.175 65.0531 782.068 65.2678 782.002 65.4982C781.937 65.7287 781.915 65.9703 781.938 66.2094L785.097 98.6408C785.12 98.88 785.188 99.1118 785.296 99.3233C785.405 99.5347 785.552 99.7215 785.729 99.873C785.906 100.024 786.11 100.138 786.329 100.206C786.547 100.275 786.777 100.297 787.004 100.272L804.367 98.3731L804.143 102.816C804.143 102.816 800.628 105.301 803.247 105.076C805.867 104.852 818.176 103.443 818.176 103.443C818.176 103.443 820.557 103.183 816.567 101.395L815.536 97.1514L832.744 95.2691C832.971 95.2443 833.192 95.1726 833.393 95.0581C833.594 94.9437 833.771 94.7887 833.916 94.6021C834.06 94.4154 834.168 94.2007 834.233 93.9703C834.298 93.7399 834.32 93.4982 834.297 93.2591L831.138 60.8277C831.115 60.5886 831.047 60.3567 830.939 60.1453C830.83 59.9339 830.683 59.7471 830.506 59.5956C830.329 59.4441 830.125 59.3308 829.907 59.2623C829.688 59.1937 829.458 59.1713 829.231 59.1961V59.1961Z" fill="#3F3D56"/>
<path d="M829.493 61.114L783.604 66.1335L786.236 93.1577L832.125 88.1381L829.493 61.114Z" fill="#F2F2F2"/>
<path d="M806.495 63.0735C806.655 63.056 806.772 62.9049 806.756 62.7361C806.739 62.5672 806.596 62.4446 806.435 62.4621C806.275 62.4797 806.158 62.6308 806.175 62.7996C806.191 62.9684 806.335 63.0911 806.495 63.0735Z" fill="#F2F2F2"/>
<path d="M809.746 96.4563C810.356 96.3896 810.799 95.8155 810.737 95.1739C810.674 94.5323 810.129 94.0663 809.52 94.1329C808.91 94.1996 808.467 94.7738 808.529 95.4153C808.592 96.0569 809.137 96.523 809.746 96.4563Z" fill="#F2F2F2"/>
<path d="M809.11 107.772L809.17 108.383L777.919 111.802L777.871 111.313L777.902 111.186L778.458 108.9L808.257 105.641L809.11 107.772Z" fill="#3F3D56"/>
<path d="M821.078 105.858C821.046 106.12 820.857 106.414 820.397 106.723C818.743 107.831 815.087 107.056 815.087 107.056C815.087 107.056 812.309 106.866 812.184 105.582C812.256 105.518 812.331 105.46 812.409 105.406C813.102 104.918 815.433 103.645 819.882 104.632C820.21 104.702 820.512 104.866 820.756 105.107C820.862 105.196 820.947 105.311 821.003 105.441C821.059 105.572 821.085 105.715 821.078 105.858Z" fill="#3F3D56"/>
<path opacity="0.1" d="M821.078 105.858C819.029 106.952 817.134 107.224 815.044 106.011C814.25 105.517 813.327 105.305 812.409 105.406C813.102 104.918 815.433 103.645 819.882 104.632C820.21 104.702 820.512 104.866 820.756 105.107C820.862 105.196 820.947 105.311 821.003 105.442C821.059 105.572 821.085 105.715 821.078 105.858Z" fill="black"/>
<path d="M818.355 105.648C818.772 105.603 819.099 105.456 819.086 105.321C819.073 105.186 818.724 105.114 818.307 105.159C817.89 105.205 817.563 105.351 817.576 105.487C817.589 105.622 817.938 105.694 818.355 105.648Z" fill="#F2F2F2"/>
<path opacity="0.1" d="M809.11 107.772L809.17 108.384L777.919 111.802L777.871 111.313L777.902 111.186L809.11 107.772Z" fill="black"/>
<path d="M731.376 46.379C731.056 46.3863 730.746 46.4957 730.486 46.6927C730.234 46.9176 730.097 47.2785 729.953 47.6159C729.407 48.9206 728.609 50.092 727.611 51.0559C726.883 51.7491 725.955 52.6155 726.199 53.72C726.306 54.0819 726.47 54.4221 726.685 54.7263C727.561 56.19 729.659 57.1657 729.636 58.9479C730.234 57.5975 729.207 57.0744 729.805 55.724C730.09 55.0809 730.62 54.3321 731.176 54.6556C731.362 54.7639 731.498 54.9798 731.69 55.0717C732.148 55.2911 732.557 54.7312 732.904 54.3285C734.1 52.9396 736.005 53.0608 737.683 53.2693C738.474 53.3677 739.348 53.515 739.881 54.2435C740.582 55.2013 739.517 56.4352 739.333 57.625C739.319 57.7262 739.328 57.8297 739.359 57.9265C739.391 58.0232 739.444 58.1105 739.515 58.1807C739.586 58.2509 739.672 58.302 739.765 58.3297C739.859 58.3573 739.958 58.3607 740.053 58.3395C740.54 58.2346 741.118 58.129 741.125 57.8986C741.746 57.8541 742.498 57.6974 742.697 56.9901C742.752 56.7128 742.767 56.4286 742.743 56.1467C742.729 54.9967 743.088 53.907 743.286 52.7892C743.485 51.6715 743.494 50.3862 742.886 49.4809C742.672 49.1811 742.417 48.9159 742.13 48.6937C738.926 46.0435 735.046 45.9731 731.376 46.379Z" fill="#2F2E41"/>
<path d="M730.487 61.1029C730.487 61.1029 731.662 66.5938 729.381 67.2929C727.1 67.9919 732.274 75.0684 732.274 75.0684L742.969 75.2472L739.567 66.6283C739.567 66.6283 737.811 66.1459 738.435 61.5822C739.058 57.0185 730.487 61.1029 730.487 61.1029Z" fill="#FFB8B8"/>
<path d="M733.345 157.332L735.382 169.472L739.819 168.987L737.36 156.893L733.345 157.332Z" fill="#FFB8B8"/>
<path d="M763.633 130.642L765.263 140.804L769.906 138.048L767.181 129.805L763.633 130.642Z" fill="#FFB8B8"/>
<path d="M725.627 110.973C725.627 110.973 727.094 123.85 728.774 127.937C730.453 132.024 730.264 132.269 730.117 132.96C729.971 133.65 729.716 133.228 729.825 134.34C729.933 135.452 731.221 153.069 731.796 154.579C732.37 156.09 730.939 158.944 732.229 159.028C733.518 159.111 739.413 158.242 739.494 156.884C739.576 155.527 737.631 155.29 738.389 154.308C739.148 153.326 738.64 134.949 738.64 134.949L740.363 121.949L745.207 114.675L756.829 113.404L761.85 127.69C761.85 127.69 760.783 132.078 761.839 131.962C762.896 131.847 769.365 132.488 768.888 127.595C768.412 122.702 764.891 108.476 764.425 108.078C763.959 107.679 764.441 106.053 763.742 105.455C763.043 104.857 755.193 100.996 752.36 100.406C749.526 99.8172 745.569 99.1799 745.569 99.1799L725.627 110.973Z" fill="#2F2E41"/>
<path d="M769.733 136.269C769.733 136.269 766.455 135.503 765.301 139.001C764.147 142.499 764.867 143.32 764.867 143.32C764.867 143.32 769.901 144.567 770.659 143.585C770.989 143.158 772.144 142.896 773.343 142.736C775.169 142.492 775.391 139.713 773.6 139.267C773.547 139.254 773.493 139.243 773.439 139.235C771.705 138.975 769.733 136.269 769.733 136.269Z" fill="#2F2E41"/>
<path d="M735.598 64.2524C739.099 63.8695 741.646 60.5718 741.287 56.8868C740.929 53.2018 737.8 50.525 734.299 50.9079C730.798 51.2909 728.25 54.5886 728.609 58.2736C728.968 61.9586 732.097 64.6354 735.598 64.2524Z" fill="#FFB8B8"/>
<path d="M727.856 70.2693C727.856 70.2693 738.426 71.3608 740.615 67.5249C742.804 63.689 745.182 77.1404 745.182 77.1404L747.836 91.2358L746.692 99.2282C746.692 99.2282 737.584 108.766 734.48 109.78C731.375 110.794 726.559 111.77 726.559 111.77C726.559 111.77 725.633 86.9211 725.59 86.4763C725.547 86.0315 727.856 70.2693 727.856 70.2693Z" fill="#019298"/>
<path d="M730.598 65.7537C730.598 65.7537 728.159 64.6167 727.655 66.0205C727.151 67.4243 721.56 71.4075 720.926 71.4769C720.292 71.5462 723.992 89.7981 723.363 92.1146C722.735 94.4312 720.301 111.106 722.755 112.186C725.21 113.267 723.259 110.783 725.908 113.864C728.558 116.946 739.968 115.698 740.472 114.294C740.976 112.891 734.296 103.506 734.443 94.0496C734.589 84.5929 735.024 71.5083 733.371 69.8908C731.719 68.2733 730.598 65.7537 730.598 65.7537Z" fill="#2F2E41"/>
<path d="M738.372 66.4216L738.563 65.3233C738.563 65.3233 747.653 67.4294 748.271 69.3848C748.888 71.3403 750.041 85.3751 748.671 86.649C747.3 87.9228 745.36 89.9332 747.099 92.4403C748.838 94.9474 750.81 97.6538 752.1 97.7376C753.389 97.8213 755.865 99.1239 755.383 100.75C754.9 102.376 747.012 100.317 747.012 100.317C747.012 100.317 741.551 96.8684 741.156 90.6179C740.761 84.3673 738.372 66.4216 738.372 66.4216Z" fill="#2F2E41"/>
<path d="M748.324 91.8568L744.227 102.42C744.227 102.42 737.611 111.236 741.924 111.663C746.237 112.09 747.76 103.607 747.76 103.607L752.452 94.7769L748.324 91.8568Z" fill="#FFB8B8"/>
<path d="M731.855 48.0911C731.597 48.0991 731.346 48.1794 731.128 48.3236C730.936 48.5061 730.785 48.7315 730.686 48.9833C730.209 49.9373 729.548 50.7761 728.746 51.4457C728.147 51.9449 727.384 52.569 727.571 53.3481C727.656 53.6068 727.786 53.8465 727.955 54.0548C728.656 55.0917 729.016 56.341 728.982 57.6137L730.481 54.7249C730.719 54.2663 731.158 53.7301 731.607 53.9526C731.757 54.0272 731.865 54.1784 732.02 54.2413C732.39 54.3913 732.729 53.9902 733.015 53.701C734.002 52.7039 735.549 52.7676 736.91 52.8957C737.553 52.9562 738.261 53.0503 738.687 53.5599C739.395 54.4066 738.878 55.7987 739.342 56.8156C739.436 56.73 739.512 56.6255 739.567 56.5083C739.622 56.391 739.654 56.2634 739.661 56.133C740.166 56.0943 740.779 55.9746 740.948 55.4716C740.995 55.2765 741.011 55.0745 740.994 54.874C740.995 54.06 741.297 53.2844 741.471 52.4909C741.644 51.6973 741.664 50.7873 741.18 50.1534C741.004 49.9399 740.8 49.7551 740.573 49.6049C737.995 47.766 734.842 47.7612 731.855 48.0911Z" fill="#2F2E41"/>
<path d="M746.071 68.7265L748.093 69.0612C748.093 69.0612 753.878 80.9096 753.644 89.4767C753.411 98.0438 752.604 96.3339 752.604 96.3339C752.604 96.3339 750.523 92.5154 746.806 93.8211L746.071 68.7265Z" fill="#2F2E41"/>
<path d="M734.672 167.916C734.233 168.701 734.437 169.731 734.06 170.551C733.734 171.261 733.031 171.692 732.599 172.337C732.462 172.551 732.344 172.777 732.245 173.012C731.869 173.862 731.599 174.928 732.125 175.684C732.548 176.292 733.328 176.462 734.038 176.559C734.936 176.681 735.863 176.756 736.734 176.492C737.604 176.229 738.415 175.563 738.644 174.641C738.685 174.411 738.737 174.183 738.801 173.959C739.185 172.911 740.691 172.736 741.086 171.692C741.363 170.962 740.965 170.16 740.58 169.487L739.404 167.434C739.014 166.752 737.755 167.306 737.061 167.209C736.155 167.081 735.218 166.934 734.672 167.916Z" fill="#2F2E41"/>
<path d="M720.865 99.3559L731.148 112.842C731.148 112.842 737.356 119.58 738.722 116.059C740.087 112.538 731.939 107.81 731.939 107.81L725.151 97.3137L720.865 99.3559Z" fill="#FFB8B8"/>
<path d="M722.66 71.7367L720.926 71.4768C720.926 71.4768 717.654 72.9587 717.263 77.7217C716.873 82.4847 719.326 101.098 720.404 101.205C721.483 101.311 725.306 97.3808 726.044 98.0448C726.781 98.7088 724.3 95.159 724.739 93.0879C725.178 91.0169 722.66 71.7367 722.66 71.7367Z" fill="#2F2E41"/>
<path d="M803.07 72.9746L797.608 73.572L797.743 74.9559L803.204 74.3585L803.07 72.9746Z" fill="#019298"/>
<path d="M821.982 70.9058L820.06 71.116L820.195 72.4998L822.117 72.2896L821.982 70.9058Z" fill="#019298"/>
<path d="M825.825 70.4854L823.903 70.6956L824.038 72.0794L825.96 71.8692L825.825 70.4854Z" fill="#019298"/>
<path d="M818.038 71.3373L804.991 72.7644L805.126 74.1483L818.172 72.7212L818.038 71.3373Z" fill="#019298"/>
<path d="M797.063 82.6687L791.602 83.2661L791.737 84.65L797.198 84.0526L797.063 82.6687Z" fill="#019298"/>
<path d="M815.976 80.6001L814.054 80.8103L814.189 82.1942L816.11 81.984L815.976 80.6001Z" fill="#019298"/>
<path d="M819.819 80.1797L817.897 80.3899L818.032 81.7738L819.953 81.5636L819.819 80.1797Z" fill="#019298"/>
<path d="M812.031 81.0314L798.985 82.4585L799.12 83.8424L812.166 82.4153L812.031 81.0314Z" fill="#019298"/>
<path d="M819.046 74.3469L813.585 74.9443L813.72 76.3282L819.181 75.7308L819.046 74.3469Z" fill="#019298"/>
<path d="M826.429 73.5393L820.968 74.1367L821.103 75.5206L826.564 74.9232L826.429 73.5393Z" fill="#019298"/>
<path d="M792.953 77.2012L791.032 77.4114L791.167 78.7952L793.088 78.5851L792.953 77.2012Z" fill="#019298"/>
<path d="M796.796 76.7808L794.875 76.991L795.01 78.3748L796.931 78.1646L796.796 76.7808Z" fill="#019298"/>
<path d="M811.764 75.1435L798.718 76.5706L798.853 77.9544L811.899 76.5273L811.764 75.1435Z" fill="#019298"/>
<path d="M808.009 78.5667L802.548 79.1641L802.683 80.5479L808.144 79.9505L808.009 78.5667Z" fill="#019298"/>
<path d="M800.626 79.3743L795.165 79.9717L795.3 81.3555L800.761 80.7582L800.626 79.3743Z" fill="#019298"/>
<path d="M793.244 80.1817L791.322 80.3918L791.457 81.7757L793.378 81.5655L793.244 80.1817Z" fill="#019298"/>
<path d="M826.719 76.52L824.798 76.7302L824.933 78.1141L826.854 77.9039L826.719 76.52Z" fill="#019298"/>
<path d="M822.876 76.9403L809.83 78.3674L809.965 79.7513L823.011 78.3242L822.876 76.9403Z" fill="#019298"/>
</g>
<g clip-path="url(#clip3_138_686)">
<path d="M415.158 851.71L414.794 784.845C414.793 784.611 414.705 784.388 414.55 784.223C414.395 784.059 414.186 783.968 413.968 783.97L345.423 784.525C345.205 784.527 344.996 784.622 344.843 784.788C344.69 784.955 344.605 785.18 344.606 785.414L344.969 852.278C344.971 852.512 345.059 852.736 345.214 852.9C345.369 853.064 345.578 853.155 345.796 853.154L414.341 852.599C414.559 852.597 414.767 852.502 414.921 852.335C415.074 852.169 415.159 851.944 415.158 851.71Z" fill="white"/>
<path d="M415.158 851.71L414.794 784.845C414.793 784.611 414.705 784.388 414.55 784.223C414.395 784.059 414.186 783.968 413.968 783.97L345.423 784.525C345.205 784.527 344.996 784.622 344.843 784.788C344.69 784.955 344.605 785.18 344.606 785.414L344.969 852.278C344.971 852.512 345.059 852.736 345.214 852.9C345.369 853.064 345.578 853.155 345.796 853.154L414.341 852.599C414.559 852.597 414.767 852.502 414.921 852.335C415.074 852.169 415.159 851.944 415.158 851.71ZM344.934 785.411C344.934 785.271 344.985 785.136 345.077 785.036C345.169 784.936 345.294 784.879 345.425 784.878L413.97 784.322C414.1 784.321 414.226 784.376 414.319 784.475C414.412 784.573 414.465 784.707 414.466 784.848L414.829 851.712C414.83 851.853 414.779 851.988 414.687 852.088C414.595 852.188 414.47 852.245 414.339 852.246L345.794 852.801C345.663 852.802 345.538 852.747 345.445 852.649C345.352 852.55 345.299 852.416 345.298 852.276L344.934 785.411Z" fill="#3F3D56"/>
<path d="M367.625 814.074L367.535 797.49C367.533 797.256 367.446 797.032 367.291 796.868C367.136 796.704 366.926 796.613 366.708 796.614L351.257 796.74C351.039 796.742 350.831 796.836 350.677 797.003C350.524 797.17 350.439 797.394 350.44 797.628L350.53 814.212C350.532 814.446 350.619 814.67 350.774 814.834C350.929 814.998 351.139 815.089 351.357 815.088L366.808 814.962C367.026 814.96 367.234 814.866 367.388 814.699C367.541 814.532 367.626 814.308 367.625 814.074V814.074ZM350.769 797.626C350.768 797.485 350.819 797.35 350.911 797.25C351.003 797.15 351.128 797.094 351.259 797.092L366.71 796.967C366.841 796.966 366.967 797.021 367.06 797.12C367.153 797.218 367.205 797.352 367.206 797.492L367.296 814.076C367.297 814.217 367.246 814.352 367.154 814.452C367.062 814.552 366.937 814.608 366.806 814.61L351.355 814.735C351.224 814.736 351.098 814.681 351.005 814.582C350.912 814.484 350.86 814.35 350.859 814.21L350.769 797.626Z" fill="#F2F2F2"/>
<path d="M369.49 809.295L369.399 792.711C369.398 792.501 369.319 792.3 369.179 792.152C369.04 792.004 368.851 791.922 368.655 791.923L353.204 792.048C353.008 792.05 352.82 792.136 352.682 792.286C352.545 792.435 352.468 792.638 352.469 792.848L352.559 809.432C352.56 809.643 352.639 809.844 352.779 809.992C352.918 810.139 353.107 810.222 353.303 810.22L368.754 810.095C368.95 810.093 369.138 810.008 369.276 809.858C369.414 809.708 369.491 809.506 369.49 809.295V809.295Z" fill="#019298"/>
<path d="M377.243 844.519L376.961 792.65C376.96 792.439 376.88 792.238 376.741 792.09C376.601 791.942 376.413 791.86 376.217 791.862C376.02 791.863 375.833 791.949 375.695 792.099C375.557 792.249 375.48 792.451 375.481 792.662L375.764 844.531C375.764 844.635 375.784 844.738 375.821 844.834C375.859 844.93 375.914 845.017 375.983 845.09C376.052 845.163 376.134 845.221 376.224 845.26C376.314 845.3 376.41 845.319 376.508 845.318C376.605 845.318 376.701 845.296 376.79 845.256C376.88 845.215 376.961 845.156 377.029 845.082C377.098 845.007 377.152 844.919 377.188 844.823C377.225 844.726 377.243 844.623 377.243 844.519V844.519Z" fill="#CCCCCC"/>
<path d="M382.27 831.951L382.056 792.609C382.056 792.504 382.036 792.401 381.998 792.305C381.961 792.209 381.906 792.122 381.837 792.049C381.697 791.901 381.509 791.819 381.312 791.821C381.116 791.822 380.928 791.908 380.791 792.058C380.653 792.208 380.576 792.41 380.577 792.621L380.791 831.963C380.792 832.068 380.811 832.171 380.849 832.267C380.887 832.363 380.942 832.45 381.011 832.523C381.08 832.596 381.162 832.654 381.252 832.693C381.342 832.732 381.438 832.752 381.535 832.751C381.632 832.75 381.728 832.729 381.818 832.688C381.907 832.648 381.989 832.589 382.057 832.514C382.125 832.44 382.179 832.352 382.216 832.256C382.252 832.159 382.271 832.056 382.27 831.951L382.27 831.951Z" fill="#CCCCCC"/>
<path d="M358.503 844.494L358.378 821.559C358.377 821.348 358.298 821.147 358.159 820.999C358.019 820.851 357.83 820.769 357.634 820.771C357.438 820.772 357.25 820.858 357.112 821.008C356.975 821.158 356.898 821.36 356.899 821.571L357.024 844.506C357.025 844.717 357.104 844.918 357.243 845.066C357.312 845.139 357.394 845.197 357.484 845.236C357.574 845.275 357.67 845.295 357.768 845.294C357.865 845.293 357.961 845.272 358.05 845.231C358.14 845.191 358.221 845.131 358.289 845.057C358.358 844.983 358.412 844.895 358.448 844.798C358.485 844.702 358.504 844.598 358.503 844.494Z" fill="#CCCCCC"/>
<path d="M363.568 838.729L363.474 821.517C363.473 821.413 363.454 821.31 363.416 821.214C363.378 821.118 363.323 821.031 363.254 820.958C363.185 820.885 363.103 820.827 363.013 820.788C362.923 820.749 362.827 820.729 362.73 820.73C362.633 820.73 362.537 820.752 362.447 820.792C362.358 820.833 362.276 820.892 362.208 820.966C362.14 821.041 362.086 821.129 362.049 821.225C362.013 821.322 361.994 821.425 361.994 821.529L362.088 838.741C362.089 838.951 362.168 839.153 362.308 839.3C362.447 839.448 362.636 839.53 362.832 839.529C363.028 839.527 363.216 839.442 363.354 839.292C363.492 839.142 363.569 838.939 363.568 838.729Z" fill="#CCCCCC"/>
<path d="M387.434 844.436L387.152 792.567C387.151 792.357 387.072 792.155 386.932 792.008C386.793 791.86 386.604 791.778 386.408 791.779C386.212 791.781 386.024 791.866 385.886 792.016C385.748 792.166 385.671 792.369 385.673 792.579L385.955 844.448C385.956 844.659 386.035 844.86 386.175 845.008C386.314 845.155 386.503 845.238 386.699 845.236C386.895 845.234 387.083 845.149 387.221 844.999C387.359 844.849 387.435 844.647 387.434 844.436L387.434 844.436Z" fill="#CCCCCC"/>
<path d="M392.462 831.869L392.248 792.526C392.247 792.422 392.227 792.319 392.19 792.223C392.152 792.127 392.097 792.039 392.028 791.966C391.959 791.893 391.877 791.835 391.787 791.796C391.697 791.757 391.601 791.737 391.504 791.738C391.407 791.739 391.31 791.76 391.221 791.801C391.131 791.841 391.05 791.9 390.982 791.975C390.914 792.049 390.86 792.137 390.823 792.234C390.786 792.33 390.768 792.434 390.768 792.538L390.982 831.881C390.983 831.985 391.003 832.088 391.04 832.184C391.078 832.28 391.133 832.367 391.202 832.44C391.271 832.513 391.353 832.571 391.443 832.61C391.533 832.649 391.629 832.669 391.726 832.668C391.824 832.668 391.92 832.646 392.009 832.606C392.099 832.565 392.18 832.506 392.248 832.432C392.316 832.357 392.37 832.269 392.407 832.173C392.444 832.076 392.462 831.973 392.462 831.869L392.462 831.869Z" fill="#CCCCCC"/>
<path d="M397.626 844.354L397.343 792.485C397.343 792.381 397.323 792.277 397.285 792.181C397.248 792.085 397.193 791.998 397.124 791.925C397.055 791.852 396.973 791.794 396.883 791.755C396.793 791.716 396.697 791.696 396.599 791.697C396.502 791.698 396.406 791.719 396.317 791.76C396.227 791.8 396.146 791.859 396.078 791.934C396.009 792.008 395.955 792.096 395.919 792.192C395.882 792.289 395.863 792.393 395.864 792.497L396.146 844.366C396.147 844.47 396.166 844.573 396.204 844.669C396.242 844.765 396.297 844.852 396.366 844.925C396.435 844.998 396.517 845.056 396.607 845.095C396.697 845.134 396.793 845.154 396.89 845.153C396.987 845.153 397.083 845.131 397.173 845.091C397.263 845.05 397.344 844.991 397.412 844.917C397.48 844.842 397.534 844.754 397.571 844.658C397.608 844.561 397.626 844.458 397.626 844.354V844.354Z" fill="#CCCCCC"/>
<path d="M402.721 844.312L402.439 792.444C402.438 792.339 402.419 792.236 402.381 792.14C402.343 792.044 402.288 791.957 402.219 791.884C402.15 791.811 402.068 791.753 401.978 791.714C401.888 791.675 401.792 791.655 401.695 791.656C401.598 791.656 401.502 791.678 401.412 791.718C401.323 791.759 401.242 791.818 401.173 791.892C401.105 791.967 401.051 792.055 401.014 792.151C400.978 792.248 400.959 792.351 400.96 792.455L401.242 844.324C401.242 844.429 401.262 844.532 401.3 844.628C401.338 844.724 401.393 844.811 401.462 844.884C401.531 844.957 401.613 845.015 401.703 845.054C401.792 845.093 401.889 845.113 401.986 845.112C402.083 845.111 402.179 845.09 402.269 845.049C402.358 845.009 402.439 844.95 402.508 844.875C402.576 844.801 402.63 844.713 402.667 844.617C402.703 844.52 402.722 844.417 402.721 844.312V844.312Z" fill="#CCCCCC"/>
<path d="M411.573 842.402C411.193 841.533 410.745 840.699 410.235 839.909C409.775 839.199 409.267 838.475 408.564 838.025C408.268 837.826 407.932 837.705 407.584 837.671C407.236 837.638 406.885 837.693 406.56 837.832C406.254 837.971 405.997 838.21 405.826 838.516C405.655 838.821 405.579 839.177 405.609 839.532C405.64 839.891 405.761 840.235 405.96 840.526C406.158 840.818 406.426 841.046 406.736 841.187C407.083 841.328 407.455 841.384 407.825 841.349C408.194 841.314 408.552 841.191 408.871 840.987C410.196 840.179 410.953 838.276 410.88 836.69C410.798 834.903 409.292 833.266 407.561 833.793C407.201 833.903 407.324 834.438 407.629 834.515C408.04 834.625 408.473 834.562 408.842 834.34C409.211 834.118 409.487 833.753 409.614 833.32C409.741 832.887 409.709 832.419 409.525 832.01C409.341 831.602 409.019 831.285 408.624 831.124L408.685 831.77C409.209 831.27 409.602 830.631 409.823 829.916C410.045 829.202 410.087 828.438 409.946 827.701C409.877 827.337 409.761 826.985 409.601 826.656C409.403 826.257 409.385 825.742 409.311 825.295L408.775 822.073C408.696 821.599 407.998 821.672 408.077 822.15L408.562 825.067C408.643 825.554 408.72 826.041 408.805 826.526C408.866 826.873 409.075 827.171 409.178 827.51C409.365 828.148 409.379 828.83 409.219 829.477C409.058 830.123 408.73 830.708 408.272 831.163C408.223 831.202 408.185 831.254 408.161 831.314C408.137 831.374 408.127 831.44 408.133 831.504C408.139 831.569 408.161 831.632 408.196 831.685C408.231 831.738 408.278 831.781 408.333 831.809C408.573 831.894 408.773 832.077 408.888 832.319C409.003 832.561 409.024 832.843 408.947 833.102C408.869 833.36 408.7 833.576 408.475 833.702C408.25 833.828 407.989 833.853 407.747 833.773L407.815 834.495C408.931 834.155 409.959 835.246 410.14 836.354C410.343 837.594 409.855 839.041 409.027 839.922C408.833 840.142 408.598 840.317 408.337 840.436C408.077 840.555 407.797 840.614 407.514 840.612C407.258 840.612 407.008 840.525 406.799 840.365C406.591 840.204 406.435 839.978 406.354 839.717C406.275 839.487 406.283 839.234 406.375 839.01C406.468 838.786 406.638 838.609 406.849 838.517C407.092 838.422 407.352 838.393 407.607 838.432C407.862 838.471 408.105 838.577 408.313 838.74C408.906 839.162 409.334 839.829 409.73 840.449C410.181 841.156 410.579 841.9 410.919 842.675C411.11 843.11 411.766 842.842 411.573 842.402Z" fill="#1DD9B3"/>
<path d="M428.103 819.066C428.187 819.088 428.273 819.102 428.36 819.109L432.156 826.381L431.193 828.126L433.453 830.026L435.438 827.114C435.598 826.879 435.683 826.595 435.68 826.304C435.677 826.012 435.586 825.73 435.421 825.5L430.035 817.983C430.155 817.649 430.177 817.283 430.099 816.934C430.02 816.586 429.845 816.272 429.596 816.033C429.346 815.795 429.035 815.643 428.704 815.599C428.373 815.556 428.036 815.621 427.74 815.787C427.444 815.953 427.201 816.212 427.045 816.529C426.889 816.847 426.827 817.207 426.866 817.563C426.905 817.919 427.045 818.254 427.266 818.522C427.487 818.791 427.779 818.98 428.103 819.066V819.066Z" fill="#FFB7B7"/>
<path d="M481.609 816.547L480.307 814.191L471.209 818.475L473.131 821.953L481.609 816.547Z" fill="#FFB7B7"/>
<path d="M484.071 815.79L479.873 808.191L479.783 808.248C479.052 808.714 478.522 809.473 478.311 810.358C478.101 811.242 478.226 812.18 478.659 812.964L478.659 812.965L481.223 817.606L484.071 815.79Z" fill="#2F2E41"/>
<path d="M469.738 795.178L467.677 793.562L460.873 801.334L463.914 803.72L469.738 795.178Z" fill="#FFB7B7"/>
<path d="M471.727 793.444L465.082 788.231L465.02 788.321C464.518 789.058 464.308 789.979 464.438 790.881C464.568 791.783 465.026 792.591 465.712 793.13L465.712 793.13L469.77 796.314L471.727 793.444Z" fill="#2F2E41"/>
<path d="M436.519 829.805L439.001 827.992L442.25 832.657L445.65 837.538L440.891 838.497L436.519 829.805Z" fill="#FFB7B7"/>
<path d="M438.947 827.814L425.295 833.902L426.123 837.91L425.407 839.698L428.32 844.324L430.18 844.09L432.719 845.928L439.306 841.197L445.157 837.854L438.947 827.814Z" fill="#2F2E41"/>
<path d="M434.902 828.746L431.744 826.146L431.696 826.197C431.647 826.248 426.789 831.308 425.986 832.081C425.15 832.886 425.293 833.787 425.3 833.825L425.305 833.852L426.434 834.958L431.107 832.781L434.902 828.746Z" fill="#2F2E41"/>
<path d="M469.217 797.884L465.839 793.896L451.168 813.066L446.169 819.613C446.169 819.613 441.93 824.446 440.347 826.418L437.931 828.539L444.6 838.04C444.6 838.04 450.059 838.4 455.924 833.494L479.976 818.687L477.684 814.007L451.543 825.53L461.033 810.451C461.033 810.451 465.494 804.761 465.881 802.478L469.217 797.884Z" fill="#2F2E41"/>
<path d="M443.231 833.398C443.274 833.479 443.322 833.556 443.376 833.629L440.984 841.57L439.138 842L439.374 845.074L442.71 844.653C442.98 844.619 443.232 844.492 443.429 844.291C443.625 844.09 443.756 843.826 443.802 843.539L445.282 834.18C445.592 834.047 445.857 833.815 446.042 833.516C446.227 833.217 446.322 832.865 446.316 832.506C446.31 832.148 446.202 831.8 446.007 831.509C445.812 831.218 445.539 830.998 445.225 830.878C444.91 830.758 444.569 830.744 444.246 830.837C443.924 830.93 443.635 831.127 443.418 831.4C443.202 831.674 443.068 832.011 443.035 832.368C443.001 832.725 443.07 833.084 443.231 833.398V833.398Z" fill="#FFB7B7"/>
<path d="M441.262 840.88L435.827 841.669L433.229 844.37L432.708 845.826C432.717 845.903 432.741 845.976 432.779 846.042C432.816 846.108 432.865 846.165 432.924 846.209C433.209 846.442 433.706 846.478 434.402 846.317L440.354 845.03L441.262 840.88Z" fill="#2F2E41"/>
<path d="M422.738 838.805L419.465 840.892C418.301 841.634 417.459 842.841 417.124 844.247C416.789 845.654 416.987 847.145 417.676 848.392C418.366 849.639 419.489 850.541 420.798 850.899C422.108 851.256 423.498 851.04 424.661 850.299L427.935 848.211C428.091 848.112 428.204 847.95 428.249 847.761C428.294 847.572 428.267 847.372 428.175 847.204L423.676 839.061C423.584 838.894 423.433 838.773 423.257 838.725C423.081 838.677 422.895 838.705 422.738 838.805V838.805Z" fill="#2F2E41"/>
<path d="M425.316 842.215C426.368 844.119 425.781 846.581 424.005 847.714C422.228 848.846 419.936 848.22 418.884 846.316C417.831 844.411 418.418 841.949 420.195 840.817C421.971 839.685 424.264 840.31 425.316 842.215Z" fill="#FFB7B7"/>
<path d="M419.112 839.612C418.193 840.2 417.527 841.155 417.262 842.267C416.997 843.379 417.153 844.558 417.697 845.545L418.085 846.247C418.631 847.233 419.519 847.945 420.555 848.228C421.591 848.511 422.69 848.341 423.61 847.755L423.676 847.714L422.856 846.23L421.255 846.567L422.521 845.623L422.097 844.856L421.29 845.026L421.928 844.55L419.177 839.571L419.112 839.612Z" fill="#2F2E41"/>
<path d="M425.572 841.592C425.446 841.578 425.318 841.603 425.205 841.664C425.091 841.725 424.995 841.819 424.929 841.935C424.02 843.521 422.157 846.117 419.89 845.693L419.727 845.663L421.944 849.676L427.564 846.093L426.15 842.065C426.135 842.024 426.118 841.984 426.097 841.947C426.042 841.847 425.966 841.763 425.875 841.702C425.783 841.64 425.68 841.602 425.572 841.592V841.592Z" fill="#2F2E41"/>
<path d="M449.528 763.008L451.415 764.686L446.272 773.305L443.488 770.829L449.528 763.008Z" fill="#9F616A"/>
<path d="M450.565 760.615L448.535 763.243L452.251 766.546C452.879 767.103 453.688 767.37 454.501 767.287C455.313 767.205 456.062 766.78 456.584 766.106L456.648 766.023L450.565 760.615Z" fill="#2F2E41"/>
<path d="M459.144 775.606L460.393 777.868L452.851 784.131L451.007 780.793L459.144 775.606Z" fill="#9F616A"/>
<path d="M458.137 775.468L460.597 779.922L460.597 779.923C460.803 780.295 461.075 780.621 461.399 780.88C461.722 781.14 462.09 781.329 462.481 781.435C462.873 781.542 463.28 781.565 463.68 781.503C464.08 781.441 464.465 781.295 464.813 781.073L464.899 781.018L460.87 773.725L458.137 775.468Z" fill="#2F2E41"/>
<path d="M404.314 803.594L403.044 805.733C403.044 805.733 405.925 808.852 408.09 807.922L404.314 803.594Z" fill="#F1F1F1"/>
<path d="M422.799 786.32L438.199 780.118L445.991 765.546L449.884 768.802L442.502 783.237L439.915 786.135L456.394 776.376L458.4 780.272L444.267 791.655L428.672 797.793L422.799 786.32Z" fill="#2F2E41"/>
<path d="M428.896 789.299C426.725 785.369 424.645 783.321 424.603 783.272L424.535 783.193L416.815 790.883L408.702 796.181C405.242 798.387 404.04 802.455 403.992 802.944C403.813 803.135 403.676 803.365 403.589 803.619C403.502 803.872 403.467 804.143 403.488 804.413C403.593 805.447 404.556 806.178 404.597 806.209L407.292 808.53L407.338 808.52C407.457 808.492 421.677 804.746 421.677 804.746C421.677 804.746 432.07 797.798 432.369 797.495C432.369 797.495 430.102 791.483 428.896 789.299Z" fill="#3F3D56"/>
<path d="M404.161 809.153C405.393 811.382 404.706 814.265 402.626 815.59C400.547 816.916 397.863 816.184 396.631 813.954C395.399 811.724 396.086 808.842 398.166 807.516C400.245 806.19 402.93 806.923 404.161 809.153Z" fill="#9F616A"/>
<path opacity="0.2" d="M410.999 798.706L424.092 799.909L420.376 803.689L410.999 798.706Z" fill="black"/>
<path d="M429.486 816.863C429.523 816.571 429.5 816.274 429.418 815.993C429.336 815.712 429.198 815.453 429.013 815.236C428.828 815.018 428.601 814.847 428.347 814.734C428.094 814.621 427.82 814.57 427.546 814.582L425.095 807.924L423.103 810.975L425.736 816.83C425.786 817.323 426.003 817.779 426.345 818.112C426.688 818.444 427.132 818.63 427.595 818.634C428.057 818.638 428.505 818.46 428.853 818.134C429.202 817.807 429.427 817.355 429.486 816.863L429.486 816.863Z" fill="#9F616A"/>
<path d="M423.122 811.387L424.129 813.699L427.305 812.492L425.832 809.715L423.122 811.387Z" fill="#F1F1F1"/>
<path d="M427.743 810.862L420.945 800.73L409.948 800.436L409.868 800.465C409.129 800.729 408.504 801.272 408.11 801.994C407.716 802.716 407.58 803.566 407.728 804.387C407.875 805.207 408.296 805.941 408.911 806.452C409.526 806.963 410.294 807.216 411.071 807.164L418.592 806.657L423.03 812.481L427.743 810.862Z" fill="#3F3D56"/>
<path d="M401.765 806.03L403.729 809.31C403.848 809.509 402.099 811.375 401.712 811.719C401.466 811.953 401.308 812.276 401.267 812.626C401.226 812.976 401.306 813.33 401.49 813.621C401.651 813.858 401.563 814.769 401.406 815.752C401.108 817.618 399.227 818.73 397.645 817.898C397.602 817.875 397.561 817.852 397.522 817.828C396.6 817.255 395.894 816.346 395.339 815.37C394.836 814.484 394.434 813.5 394.393 812.463C394.321 810.604 395.45 808.871 396.904 807.855C398.358 806.839 400.098 806.422 401.809 806.117" fill="#2F2E41"/>
</g>
<path d="M1224.26 913.183L1252.59 874.368C1253.73 872.806 1255.83 872.527 1257.28 873.747L1284.54 896.657C1285.99 897.877 1286.24 900.141 1285.1 901.703L1256.77 940.518C1255.63 942.081 1253.52 942.36 1252.07 941.14L1224.82 918.229C1223.37 917.01 1223.12 914.746 1224.26 913.183Z" fill="white"/>
<path d="M1224.26 913.183L1252.59 874.368C1253.73 872.806 1255.83 872.527 1257.28 873.747L1284.54 896.657C1285.99 897.877 1286.24 900.141 1285.1 901.703L1256.77 940.518C1255.63 942.081 1253.52 942.36 1252.07 941.14L1224.82 918.229C1223.37 917.01 1223.12 914.746 1224.26 913.183ZM1284.66 901.334C1285.61 900.032 1285.4 898.147 1284.19 897.131L1256.94 874.22C1255.73 873.204 1253.97 873.436 1253.02 874.738L1224.7 913.553C1223.75 914.854 1223.96 916.74 1225.17 917.756L1252.42 940.667C1253.63 941.683 1255.38 941.45 1256.33 940.149L1284.66 901.334Z" fill="#3F3D56"/>
<path d="M1256.59 933.483C1256.3 933.875 1256.37 934.441 1256.73 934.747C1257.09 935.053 1257.62 934.983 1257.91 934.591C1258.19 934.199 1258.13 933.634 1257.77 933.328C1257.4 933.021 1256.88 933.091 1256.59 933.483Z" fill="#3F3D56"/>
<path d="M1255.21 935.376C1254.92 935.768 1254.99 936.334 1255.35 936.64C1255.71 936.946 1256.24 936.876 1256.53 936.484C1256.81 936.092 1256.75 935.526 1256.39 935.22C1256.02 934.914 1255.49 934.984 1255.21 935.376Z" fill="#3F3D56"/>
<path d="M1253.83 937.269C1253.54 937.661 1253.6 938.227 1253.97 938.533C1254.33 938.839 1254.86 938.769 1255.14 938.377C1255.43 937.985 1255.37 937.419 1255 937.113C1254.64 936.807 1254.11 936.877 1253.83 937.269Z" fill="#3F3D56"/>
<path d="M1270.94 891.718C1271.08 891.522 1271.05 891.239 1270.87 891.086C1270.78 891.011 1270.67 890.979 1270.56 890.995C1270.45 891.009 1270.35 891.068 1270.28 891.164L1243.52 927.838C1243.37 928.034 1243.41 928.317 1243.59 928.47C1243.68 928.545 1243.79 928.577 1243.89 928.561C1244.01 928.547 1244.11 928.487 1244.18 928.392L1270.94 891.718Z" fill="#E6E6E6"/>
<path d="M1249.12 921.86L1248.24 921.121L1270.17 891.071C1270.27 890.941 1270.4 890.864 1270.54 890.847C1270.69 890.826 1270.84 890.866 1270.96 890.968C1271.2 891.171 1271.24 891.55 1271.05 891.81L1249.12 921.86Z" fill="#019298"/>
<path d="M1246.37 929.278L1249.82 924.546C1250.2 924.024 1250.9 923.931 1251.39 924.338C1251.87 924.746 1251.96 925.502 1251.58 926.024L1248.12 930.756C1247.74 931.278 1247.04 931.371 1246.55 930.963C1246.07 930.556 1245.98 929.8 1246.37 929.278Z" fill="#E6E6E6"/>
<path d="M1273.6 902.161L1277.05 897.429C1277.43 896.907 1278.14 896.814 1278.62 897.221C1279.11 897.629 1279.19 898.385 1278.81 898.906L1275.36 903.639C1274.98 904.16 1274.27 904.254 1273.79 903.846C1273.3 903.439 1273.22 902.683 1273.6 902.161Z" fill="#E6E6E6"/>
<path d="M1261.05 883.406C1261.2 883.211 1261.17 882.927 1260.98 882.774C1260.9 882.7 1260.79 882.668 1260.68 882.684C1260.56 882.698 1260.47 882.757 1260.4 882.852L1233.63 919.527C1233.49 919.723 1233.52 920.006 1233.7 920.159C1233.79 920.233 1233.9 920.265 1234.01 920.249C1234.12 920.236 1234.22 920.176 1234.29 920.081L1261.05 883.406Z" fill="#E6E6E6"/>
<path d="M1252.53 895.329L1251.65 894.591L1260.29 882.76C1260.38 882.63 1260.52 882.552 1260.66 882.535C1260.8 882.514 1260.95 882.555 1261.07 882.656C1261.31 882.859 1261.35 883.239 1261.16 883.499L1252.53 895.329Z" fill="#019298"/>
<path d="M1236.48 920.967L1239.93 916.235C1240.31 915.713 1241.02 915.62 1241.5 916.027C1241.99 916.435 1242.07 917.19 1241.69 917.712L1238.24 922.444C1237.86 922.966 1237.15 923.06 1236.67 922.652C1236.18 922.245 1236.1 921.489 1236.48 920.967Z" fill="#E6E6E6"/>
<path d="M1268.35 874.191L1275.08 864.964L1281.59 871.584L1276.24 878.919L1268.35 874.191Z" fill="#A0616A"/>
<path opacity="0.1" d="M1268.35 874.191L1275.08 864.964L1281.59 871.584L1276.24 878.919L1268.35 874.191Z" fill="black"/>
<path d="M1226.93 818.005L1219.34 814.124L1216.42 819.506L1224.04 823.737L1226.93 818.005Z" fill="#A0616A"/>
<path d="M1207.94 844.035L1202.61 837.052L1206.78 832.723L1212.43 839.651L1207.94 844.035Z" fill="#A0616A"/>
<path d="M1216.08 865.698L1247.17 877.737C1254.12 880.43 1261.92 878.014 1266.49 871.747L1266.49 871.747C1271.58 864.775 1271.34 854.919 1265.93 848.276L1245.73 823.495C1242.84 819.946 1237.7 820.027 1234.87 823.59L1218.65 809.951L1217.66 811.3L1233.88 824.933L1213.21 853.256L1196.99 839.623L1196.01 840.971L1212.29 854.659C1210.13 858.724 1211.83 864.053 1216.08 865.698Z" fill="#CCCCCC"/>
<path d="M1246.1 861.759L1257.61 844.884C1257.61 844.884 1251.87 830.047 1242.52 839.813C1233.17 849.58 1227.68 860.419 1231.77 864.508C1235.86 868.597 1241.7 868.068 1246.1 861.759V861.759Z" fill="#2F2E41"/>
<path d="M1254.72 847.459C1254.72 847.459 1258.62 840.729 1257.38 838.82C1256.15 836.912 1249.21 830.642 1249.21 830.642L1226.78 815.699L1222.51 823.209L1243.38 838.359L1239.2 847.685L1254.72 847.459L1254.72 847.459Z" fill="#2F2E41"/>
<path d="M1221.64 817.475C1221.64 817.475 1224.38 816.486 1224.21 815.482C1224.03 814.478 1223.34 809.33 1223.34 809.33L1224.1 801.918C1224.1 801.918 1223.5 794.444 1219.19 800.618C1214.89 806.793 1214.32 811.321 1214.32 811.321C1214.32 811.321 1210.15 817.168 1211.75 818.297C1213.35 819.425 1218.71 820.779 1218.71 820.779L1221.64 817.475V817.475Z" fill="#2F2E41"/>
<path d="M1241.23 865.936C1241.23 865.936 1236.08 871.614 1234.06 870.785C1232.04 869.956 1224.7 864.225 1224.7 864.225L1205.81 844.426L1211.58 838.179L1230.29 856.297L1237.72 849.708L1241.23 865.936L1241.23 865.936Z" fill="#2F2E41"/>
<path d="M1206.19 838.649C1206.19 838.649 1205.95 841.743 1205 841.8C1204.05 841.857 1199.23 842.373 1199.23 842.373L1192.71 844.942C1192.71 844.942 1185.8 846.099 1190.35 840.135C1194.91 834.171 1198.87 832.496 1198.87 832.496C1198.87 832.496 1203.16 826.744 1204.56 828.142C1205.97 829.54 1208.48 834.808 1208.48 834.808L1206.19 838.649L1206.19 838.649Z" fill="#2F2E41"/>
<path d="M1272.68 876.275L1278.4 868.445L1280.22 860.412L1262.71 847.864C1262.71 847.864 1258.91 841.958 1257.1 843.756C1255.3 845.554 1245.15 855.304 1244.52 859.775C1243.88 864.246 1241.41 866.522 1241.41 866.522L1265.98 881.304L1272.68 876.275L1272.68 876.275Z" fill="#3F3D56"/>
<path d="M1276.08 873.145C1273.14 877.167 1273.79 882.973 1277.53 886.113C1281.26 889.252 1286.67 888.537 1289.6 884.515C1292.54 880.492 1291.89 874.686 1288.16 871.547C1284.42 868.407 1279.02 869.122 1276.08 873.145Z" fill="#A0616A"/>
<path d="M1287.2 870.407L1284.76 870.384L1285.75 874.011C1285.75 874.011 1283.64 872.471 1280.92 877.863C1278.2 883.256 1277.61 884.621 1277.61 884.621L1274.93 883.303C1274.93 883.303 1276.01 885.143 1277.01 885.986C1278.02 886.828 1277.87 892.291 1282.5 890.368C1287.14 888.446 1287.65 891.901 1290.79 887.323C1293.93 882.745 1296.05 880.109 1294.87 878.413C1293.68 876.717 1292.54 874.128 1290.8 872.903C1289.07 871.679 1287.2 870.407 1287.2 870.407V870.407Z" fill="#2F2E41"/>
<path d="M1247.5 859.261C1248.24 857.053 1249.9 855.669 1251.21 856.17C1252.51 856.67 1252.97 858.866 1252.23 861.074C1251.95 861.961 1251.47 862.762 1250.84 863.411L1247.6 872.725L1243.57 871.013L1247.19 862.013C1247.09 861.083 1247.2 860.139 1247.5 859.261V859.261Z" fill="#A0616A"/>
<path d="M1279.77 831.231C1281.71 830.155 1283.8 830.356 1284.43 831.681C1285.06 833.006 1284 834.953 1282.06 836.03C1281.29 836.471 1280.43 836.708 1279.56 836.722L1271.28 841.172L1269.43 836.961L1277.79 833.021C1278.31 832.264 1278.99 831.65 1279.77 831.231L1279.77 831.231Z" fill="#A0616A"/>
<path d="M1280.27 860.418C1280.27 860.418 1277.16 862.33 1274.39 859.857C1271.61 857.384 1269.21 851.905 1269.21 851.905C1269.21 851.905 1260.37 844.228 1261.32 840.777C1262.28 837.326 1274.43 834.4 1274.43 834.4L1276.4 839.088L1274.21 842.921L1280.27 860.418V860.418Z" fill="#3F3D56"/>
<path d="M1266.96 878.86C1266.96 878.86 1265.89 882.534 1262.29 882.768C1258.68 883.001 1253.44 880.77 1253.44 880.77C1253.44 880.77 1242.08 881.664 1240.59 878.45C1239.09 875.236 1246.14 864.19 1246.14 864.19L1250.56 866.164L1251.39 870.562L1266.96 878.86V878.86Z" fill="#3F3D56"/>
<path d="M1236.88 865.397L1253.68 842.376C1254.62 841.088 1256.36 840.858 1257.55 841.863L1269.99 852.325C1271.19 853.33 1271.4 855.195 1270.46 856.483L1253.66 879.504C1252.72 880.792 1250.98 881.022 1249.79 880.017L1237.34 869.555C1236.15 868.55 1235.94 866.685 1236.88 865.397Z" fill="#019298"/>
<g clip-path="url(#clip4_138_686)">
<path d="M1311.17 377.58C1311.84 377.56 1312.46 377.694 1312.95 377.931L1319.32 377.343L1319.51 380.381L1313.03 380.651C1312.55 380.916 1311.94 381.085 1311.27 381.105C1309.74 381.149 1308.48 380.396 1308.45 379.423C1308.42 378.449 1309.64 377.624 1311.17 377.58V377.58Z" fill="#FFB6B6"/>
<path d="M1262.35 423.399L1261.42 420.769L1272.85 415.392L1274.22 419.272L1262.35 423.399Z" fill="#FFB6B6"/>
<path d="M1253.84 416.119C1253.39 416.265 1253.13 416.702 1253.26 417.094L1254.98 422.354C1254.98 422.354 1257.23 422.19 1258.82 424.007L1255.89 425.127L1256.78 427.841L1261.46 425.944C1261.46 425.944 1264.26 425.831 1265.07 423.895C1265.89 421.959 1266.11 423.239 1266.11 423.239L1268.88 421.676L1267.05 417.734L1262.39 419.227L1257.12 418.749L1254.72 416.303C1254.51 416.085 1254.16 416.013 1253.84 416.119L1253.84 416.119L1253.84 416.119Z" fill="#2F2E41"/>
<path d="M1259.76 404.953L1258.83 402.323L1270.26 396.946L1271.63 400.826L1259.76 404.953Z" fill="#FFB6B6"/>
<path d="M1251.25 397.673C1250.8 397.819 1250.54 398.256 1250.67 398.648L1252.39 403.908C1252.39 403.908 1254.64 403.744 1256.23 405.561L1253.3 406.681L1254.19 409.395L1258.87 407.498C1258.87 407.498 1261.67 407.385 1262.48 405.449C1263.3 403.513 1263.52 404.793 1263.52 404.793L1266.29 403.23L1264.46 399.288L1259.8 400.781L1254.53 400.303L1252.13 397.857C1251.92 397.639 1251.57 397.567 1251.25 397.673L1251.25 397.673L1251.25 397.673Z" fill="#2F2E41"/>
<path d="M1357.06 391.486L1352.28 382.487C1353.75 381.278 1363.73 373.124 1365.29 372.312C1369.34 370.2 1374.34 372.099 1376.08 376.323L1376.08 376.323C1377.75 380.374 1377.8 383.158 1373.96 384.807C1372.61 385.386 1369.28 387.792 1368.06 388.596C1361.29 393.03 1358.8 391.448 1357.06 391.486L1357.06 391.486Z" fill="#2F2E41"/>
<path d="M1327.67 383.879L1317.92 386.383L1286.6 390.089L1266.18 397.232L1268.78 402.354L1288.22 397.829L1312.57 400.228L1268.84 415.886L1270.53 421.763L1323.69 408.883C1327.75 407.899 1331.36 405.57 1333.93 402.275L1333.93 402.275L1327.67 383.879L1327.67 383.879Z" fill="#2F2E41"/>
<path d="M1362.34 385.852L1359.85 378.238L1356.59 377.4L1352.13 372.2L1329.54 383.268L1319.1 385.768C1319.04 390.98 1320.14 402.672 1329.22 408.415L1339.62 397.196L1358.02 393.01L1359.9 388.836L1362.34 385.852L1362.34 385.852Z" fill="#019298"/>
<path d="M1354.38 376.63C1354.38 376.63 1354.68 372.627 1351.44 371.851C1349.67 371.429 1339.04 373.026 1329.71 374.569C1321.9 375.862 1315 377.118 1315 377.118L1315.67 380.918L1331.53 380.217L1343.66 379.681L1354.38 376.63V376.63Z" fill="#019298"/>
<path d="M1362.31 381.201C1363.35 384.378 1366.77 386.109 1369.95 385.068C1373.13 384.028 1374.86 380.608 1373.82 377.431C1372.78 374.254 1369.36 372.523 1366.18 373.563C1363 374.604 1361.27 378.024 1362.31 381.201Z" fill="#FFB6B6"/>
<path d="M1290.46 507.426L1289.83 510.8L1302.55 514.845L1303.49 509.865L1290.46 507.426Z" fill="#FFB6B6"/>
<path d="M1288.37 519.001C1288.17 519.073 1287.59 519.021 1287.38 518.983C1286.75 518.864 1286.33 518.255 1286.45 517.623L1288.42 507.173C1288.5 506.741 1288.91 506.457 1289.34 506.538L1289.78 506.62C1289.78 506.62 1291.19 506.348 1292.6 507.714C1292.6 507.714 1291.09 508.8 1292.69 511.147L1293.64 511.928L1289.76 515.569L1289.03 517.854C1288.87 518.354 1288.86 518.821 1288.37 519.001L1288.37 519.001V519.001Z" fill="#2F2E41"/>
<path d="M1287.52 514.887L1288.59 518.149L1301.69 515.579L1300.12 510.764L1287.52 514.887Z" fill="#FFB6B6"/>
<path d="M1291.25 526.04C1291.12 526.198 1290.58 526.433 1290.38 526.498C1289.77 526.698 1289.11 526.365 1288.91 525.753L1285.6 515.65C1285.47 515.233 1285.69 514.784 1286.11 514.647L1286.53 514.509C1286.53 514.509 1287.64 513.595 1289.53 514.114C1289.53 514.114 1288.73 515.792 1291.27 517.077L1292.47 517.306L1290.82 522.363L1291.28 524.715C1291.39 525.23 1291.6 525.646 1291.25 526.04L1291.25 526.04V526.04Z" fill="#2F2E41"/>
<path d="M1356.98 494.795L1347.09 496.535L1294.92 511.666L1296.94 517.847L1346.68 508.964L1321.7 517.14L1301.78 508.042L1300.13 513.535L1323.99 526.586L1359.12 518.9L1363.22 514.572L1356.98 494.795Z" fill="#2F2E41"/>
<path d="M1399.19 496.943L1397.54 491.03L1393.97 490.15L1387.64 483.706L1365.22 492.212L1354.16 493.536C1354.16 493.536 1353.47 515.284 1359.25 518.904L1373.54 512.689L1394.89 506.896L1395.71 501.067L1399.19 496.943Z" fill="#019298"/>
<path d="M1399.96 494.041C1401.05 497.368 1404.64 499.182 1407.97 498.092C1411.3 497.002 1413.11 493.42 1412.02 490.093C1410.94 486.765 1407.35 484.951 1404.02 486.041C1400.69 487.132 1398.87 490.713 1399.96 494.041Z" fill="#FFB6B6"/>
<path d="M1399.51 488.917C1399.61 489.368 1398.77 489.67 1398.78 490.128C1398.79 490.547 1399.5 491.047 1400.07 490.935C1400.52 490.845 1400.54 490.432 1401.27 489.618C1401.71 489.14 1401.72 489.681 1402.47 489.416C1402.7 489.338 1403.79 488.065 1404.53 488.297C1404.77 488.373 1405.12 488.482 1405.36 488.793C1405.72 489.261 1405.43 489.669 1405.61 490.348C1405.78 490.997 1404.84 490.145 1405.55 490.729C1406.28 491.326 1407.63 491.2 1408.17 491.019C1408.73 490.831 1407.64 491.052 1408.17 491.019C1408.44 491.002 1407.05 494.259 1407.16 494.358C1407.91 494.996 1408.94 495.099 1408.7 496.13C1408.43 497.249 1408.8 497.596 1409.03 497.858C1409.23 498.072 1411.3 497.165 1411.62 496.977C1412.51 496.461 1412.61 495.26 1412.62 495.167C1412.66 494.549 1412.43 494.402 1412.59 493.998C1412.82 493.424 1413.35 493.534 1413.61 493.05C1413.9 492.517 1412.98 492.302 1412.41 490.594C1412.04 489.497 1412.66 489.245 1412.44 488.676C1412.25 488.203 1411.64 486.636 1410.04 485.572C1408.31 484.42 1406.49 484.561 1405.94 484.612C1404.63 484.732 1402.44 485.327 1401.61 486.743C1401.42 487.083 1401.25 487.56 1400.71 487.908C1400.11 488.3 1399.38 488.313 1399.36 488.608C1399.34 488.732 1399.47 488.751 1399.51 488.917L1399.51 488.917Z" fill="#2F2E41"/>
<path d="M1353.2 489.056L1326.73 408.203C1325.76 405.237 1322.56 403.615 1319.59 404.587L1270.36 420.701C1267.39 421.673 1265.77 424.875 1266.74 427.841L1293.21 508.695C1294.18 511.661 1297.38 513.282 1300.35 512.311L1349.58 496.196C1352.55 495.224 1354.17 492.022 1353.2 489.056Z" fill="#EFFEFF"/>
<path d="M1353.2 489.056L1326.73 408.203C1325.76 405.237 1322.56 403.615 1319.59 404.587L1270.36 420.701C1267.39 421.673 1265.77 424.875 1266.74 427.841L1293.21 508.695C1294.18 511.661 1297.38 513.282 1300.35 512.311L1349.58 496.196C1352.55 495.224 1354.17 492.022 1353.2 489.056ZM1316.49 506.402C1304.81 510.224 1292.25 503.866 1288.43 492.202L1267.31 427.656C1266.44 424.998 1267.89 422.138 1270.55 421.267L1319.78 405.152C1322.44 404.281 1325.3 405.73 1326.17 408.388L1352.64 489.241C1353.51 491.899 1352.05 494.76 1349.39 495.63L1316.49 506.402Z" fill="#3F3D56"/>
<path d="M1321.05 410.427C1321.64 410.099 1322.25 409.93 1322.79 409.914L1328.16 406.436L1329.74 409.038L1324.12 412.286C1323.83 412.74 1323.37 413.173 1322.78 413.501C1321.45 414.251 1319.98 414.171 1319.5 413.322C1319.02 412.473 1319.72 411.177 1321.05 410.427L1321.05 410.427Z" fill="#FFB6B6"/>
<path d="M1358.11 388.73C1358.11 388.73 1360.72 391.781 1358.57 394.324C1356.41 396.868 1326.07 411.624 1326.07 411.624L1324.36 408.163L1347.66 392.612L1358.11 388.73V388.73Z" fill="#019298"/>
<path d="M1345.75 489.036C1346.41 488.913 1347.05 488.949 1347.57 489.109L1361.12 483.922L1363.5 488.849L1348.07 491.788C1347.64 492.124 1347.06 492.386 1346.39 492.509C1344.88 492.791 1343.5 492.241 1343.32 491.282C1343.15 490.323 1344.23 489.318 1345.75 489.036L1345.75 489.036Z" fill="#FFB6B6"/>
<path d="M1388.94 489.535C1388.94 489.535 1389.19 484.049 1386.98 482.972C1384.78 481.896 1364.37 482.61 1364.37 482.61L1350.64 487.662L1352.57 491.291L1388.94 489.535L1388.94 489.535Z" fill="#019298"/>
<path d="M1280.95 458.65L1278.13 450.011C1277.98 449.577 1277.51 449.339 1277.08 449.481C1276.64 449.625 1276.4 450.095 1276.55 450.529L1279.37 459.167C1279.52 459.601 1279.99 459.839 1280.42 459.696C1280.86 459.554 1281.1 459.084 1280.95 458.65Z" fill="#E6E6E6"/>
<path d="M1285.69 473.119L1282.86 464.48C1282.72 464.046 1282.25 463.808 1281.82 463.951C1281.38 464.094 1281.14 464.564 1281.28 464.998L1284.11 473.636C1284.25 474.07 1284.72 474.309 1285.16 474.165C1285.59 474.023 1285.83 473.553 1285.69 473.119Z" fill="#E6E6E6"/>
<path d="M1290.43 487.588L1287.6 478.95C1287.46 478.516 1286.99 478.278 1286.55 478.42C1286.12 478.563 1285.88 479.033 1286.02 479.467L1288.85 488.106C1288.99 488.54 1289.46 488.778 1289.9 488.635C1290.33 488.492 1290.57 488.022 1290.43 487.588Z" fill="#E6E6E6"/>
<path d="M1383.11 495.925C1384.73 495.396 1386.47 496.279 1387 497.891C1387.52 499.504 1386.64 501.246 1385.03 501.774C1383.41 502.302 1381.67 501.42 1381.14 499.808C1380.61 498.195 1381.5 496.453 1383.11 495.925ZM1383.21 496.233C1381.77 496.705 1380.98 498.264 1381.45 499.707C1381.92 501.15 1383.48 501.939 1384.93 501.466C1386.37 500.993 1387.16 499.435 1386.69 497.992C1386.22 496.549 1384.66 495.76 1383.21 496.233Z" fill="#3F3D56"/>
<path d="M1382.53 499.354C1382.81 500.204 1383.72 500.667 1384.57 500.389C1385.42 500.11 1385.89 499.195 1385.61 498.345C1385.33 497.495 1384.42 497.031 1383.57 497.31C1382.71 497.589 1382.25 498.503 1382.53 499.354Z" fill="#3F3D56"/>
<path d="M1382.83 503.11C1382.47 503.675 1382.01 504.111 1381.54 504.379L1376.11 517.713L1370.9 516.074L1379.24 502.913C1379.29 502.374 1379.49 501.775 1379.86 501.21C1380.68 499.921 1382.02 499.301 1382.84 499.826C1383.66 500.351 1383.65 501.821 1382.83 503.11L1382.83 503.11Z" fill="#FFB6B6"/>
<path d="M1393.83 504.095C1393.83 504.095 1396.23 506.524 1394.28 508.999C1392.33 511.474 1380.01 517.38 1380.01 517.38C1380.01 517.38 1371.75 522.345 1370.67 518.335C1369.59 514.326 1378.36 503.444 1378.36 503.444L1381.73 505.408L1384.84 504.739L1393.83 504.095L1393.83 504.095Z" fill="#019298"/>
<path d="M1375.04 376.251C1373.86 374.046 1371.85 372.194 1369.41 371.649C1366.97 371.104 1363.39 369.812 1362.18 371.997C1361.75 372.752 1361.53 373.611 1361.04 374.326C1360.22 375.541 1358.7 376.174 1357.23 376.185C1355.76 376.195 1354.33 375.653 1353.06 374.913C1354.02 377.072 1356.28 378.591 1358.64 378.672C1359.73 378.709 1360.93 378.398 1361.57 377.511C1361.91 377.045 1362.06 376.473 1362.29 375.945C1362.88 374.585 1364.52 374.797 1365.93 374.342C1367.35 373.886 1368.39 373.742 1369.66 374.499C1369.32 375.421 1370.25 377.798 1370.7 378.672C1371.16 379.546 1368.45 383.29 1369.4 383.541C1368.45 384.956 1370.87 383.411 1369.19 383.752C1367.99 383.996 1366.75 383.565 1365.54 383.709C1364.48 383.835 1363.52 384.389 1362.69 385.048C1360.81 386.535 1359.41 388.624 1358.76 390.93C1359.95 389.334 1361.26 387.644 1363.17 387.061C1364.58 386.628 1368.25 388.051 1369.72 388.03C1372.55 387.992 1374.87 385.476 1376.38 383.094C1377.72 381.002 1376.21 378.295 1374.92 376.178" fill="#2F2E41"/>
<path opacity="0.7" d="M1315.02 479.048C1314.25 480.85 1311.27 479.95 1309.41 479.954C1306.51 479.96 1304.07 477.783 1303.66 474.917C1303.35 472.696 1302.92 470.498 1302.37 468.324C1301.79 466.006 1301.08 463.716 1300.24 461.45C1299.36 459.095 1298.34 456.772 1297.17 454.473L1297.15 454.435C1295.8 451.796 1296.6 448.584 1299.04 446.897C1300.45 445.921 1302.12 443.774 1303.73 444.568C1308.73 447.022 1309.35 444.646 1310.73 443.712C1312.9 442.249 1315.5 445.781 1316.06 448.334C1316.08 448.441 1316.11 448.547 1316.13 448.653C1316.96 452.419 1318.02 456.114 1319.29 459.737C1319.6 460.649 1319.94 461.558 1320.29 462.461C1321.07 464.508 1321.92 466.531 1322.85 468.531C1323.93 470.855 1324.03 475.515 1321.48 475.333C1318.84 475.145 1316.4 475.83 1315.02 479.048Z" fill="#019298"/>
<path opacity="0.7" d="M1320.29 462.461L1302.37 468.324C1301.79 466.006 1301.08 463.716 1300.24 461.45C1299.36 459.095 1298.34 456.772 1297.17 454.473C1300.27 453.815 1303.25 452.61 1305.13 454.556C1307.45 456.962 1312.22 452.59 1316.13 448.653C1316.96 452.419 1318.02 456.114 1319.29 459.737C1319.6 460.649 1319.94 461.559 1320.29 462.461L1320.29 462.461Z" fill="#3F3D56"/>
<path opacity="0.7" d="M1315.02 479.049C1314.21 480.833 1311.27 479.95 1309.41 479.954C1306.51 479.96 1304.07 477.783 1303.66 474.917C1303.35 472.696 1302.92 470.498 1302.37 468.324C1301.79 466.006 1301.08 463.717 1300.24 461.45C1302.31 458.393 1304.59 456.736 1306.84 458.187C1309.39 459.831 1314.11 459.15 1319.29 459.737C1319.6 460.649 1319.94 461.559 1320.29 462.461C1321.07 464.508 1321.92 466.531 1322.85 468.531C1323.93 470.855 1324.02 475.634 1321.48 475.333C1318.96 475.035 1316.55 475.684 1315.02 479.049V479.049Z" fill="#3F3D56"/>
<path d="M1303.29 459.603L1300.46 450.964C1300.32 450.53 1299.85 450.292 1299.41 450.434C1298.98 450.577 1298.74 451.047 1298.88 451.482L1301.71 460.12C1301.85 460.554 1302.32 460.792 1302.76 460.649C1303.19 460.507 1303.43 460.037 1303.29 459.603Z" fill="#3F3D56"/>
<path d="M1313.87 473.18L1311.05 464.542C1310.9 464.107 1310.43 463.869 1310 464.012C1309.56 464.155 1309.32 464.625 1309.46 465.059L1312.29 473.697C1312.43 474.132 1312.9 474.37 1313.34 474.226C1313.78 474.084 1314.02 473.614 1313.87 473.18Z" fill="#3F3D56"/>
<path d="M1315.18 459.459L1312.35 450.82C1312.21 450.386 1311.74 450.148 1311.31 450.29C1310.87 450.434 1310.63 450.904 1310.77 451.338L1313.6 459.976C1313.74 460.41 1314.21 460.648 1314.65 460.505C1315.08 460.363 1315.32 459.893 1315.18 459.459Z" fill="#3F3D56"/>
<path d="M1301.76 450.597L1291.28 418.578L1290.97 418.678L1301.46 450.698L1301.76 450.597Z" fill="#3F3D56"/>
<path d="M1290.36 426.039C1289.84 424.427 1290.72 422.685 1292.33 422.156C1293.95 421.628 1295.69 422.51 1296.22 424.123C1296.75 425.736 1295.86 427.477 1294.25 428.006C1292.63 428.534 1290.89 427.652 1290.36 426.039ZM1295.91 424.224C1295.44 422.781 1293.88 421.992 1292.43 422.464C1290.99 422.937 1290.2 424.495 1290.67 425.938C1291.14 427.381 1292.7 428.171 1294.15 427.698C1295.59 427.225 1296.38 425.667 1295.91 424.224Z" fill="#3F3D56"/>
<path d="M1291.75 425.585C1292.03 426.435 1292.94 426.899 1293.79 426.62C1294.65 426.342 1295.11 425.427 1294.83 424.577C1294.55 423.727 1293.64 423.263 1292.79 423.542C1291.94 423.82 1291.47 424.735 1291.75 425.585Z" fill="#019298"/>
<path d="M1320.36 502.191L1309.88 470.171L1309.57 470.272L1320.05 502.292L1320.36 502.191Z" fill="#3F3D56"/>
<path d="M1317.18 492.834C1318.79 492.306 1320.53 493.188 1321.06 494.801C1321.59 496.413 1320.7 498.155 1319.09 498.684C1317.48 499.212 1315.73 498.33 1315.21 496.717C1314.68 495.105 1315.56 493.363 1317.18 492.834ZM1317.28 493.142C1315.83 493.615 1315.04 495.173 1315.51 496.616C1315.99 498.059 1317.55 498.849 1318.99 498.376C1320.43 497.903 1321.22 496.345 1320.75 494.902C1320.28 493.459 1318.72 492.67 1317.28 493.142Z" fill="#3F3D56"/>
<path d="M1316.59 496.263C1316.87 497.114 1317.79 497.577 1318.64 497.298C1319.49 497.02 1319.95 496.105 1319.67 495.255C1319.39 494.405 1318.48 493.941 1317.63 494.22C1316.78 494.498 1316.31 495.413 1316.59 496.263Z" fill="#3F3D56"/>
<path d="M1315.78 455.894L1305.3 423.875L1304.99 423.975L1315.47 455.995L1315.78 455.894Z" fill="#3F3D56"/>
<path d="M1304.38 431.336C1303.85 429.724 1304.73 427.982 1306.35 427.453C1307.96 426.925 1309.71 427.807 1310.23 429.42C1310.76 431.032 1309.88 432.774 1308.26 433.303C1306.65 433.831 1304.91 432.949 1304.38 431.336ZM1309.93 429.521C1309.45 428.078 1307.89 427.288 1306.45 427.761C1305.01 428.234 1304.21 429.792 1304.69 431.235C1305.16 432.678 1306.72 433.467 1308.16 432.995C1309.61 432.522 1310.4 430.964 1309.93 429.521Z" fill="#3F3D56"/>
<path d="M1305.77 430.882C1306.04 431.732 1306.96 432.196 1307.81 431.917C1308.66 431.639 1309.12 430.724 1308.85 429.874C1308.57 429.023 1307.65 428.56 1306.8 428.839C1305.95 429.117 1305.49 430.032 1305.77 430.882Z" fill="#3F3D56"/>
</g>
<g clip-path="url(#clip5_138_686)">
<path d="M416.404 281.578C416.386 281.604 416.367 281.628 416.348 281.652C415.056 283.229 410.227 288.289 402.339 287.16C401.756 287.077 401.28 286.603 401.154 285.98L401.154 285.98C401.049 281.372 400.323 277.237 398.687 273.795C398.595 273.343 398.707 272.87 398.97 272.517C399.243 272.156 399.647 271.951 400.08 271.953C403.204 271.974 408.97 271.683 412.49 269.497C412.886 269.251 413.352 269.222 413.768 269.417C414.182 269.61 414.476 269.993 414.576 270.466L416.66 280.317C416.754 280.76 416.658 281.225 416.404 281.578L416.404 281.578V281.578Z" fill="#868686"/>
<path d="M402.122 285.249L402.255 285.217C402.288 285.384 402.414 285.513 402.568 285.54C410.024 286.828 414.379 281.683 415.176 280.639C415.256 280.541 415.282 280.409 415.255 280.282L413.186 270.502C413.157 270.364 413.07 270.256 412.947 270.206C412.823 270.157 412.69 270.176 412.582 270.261C409.184 272.919 402.281 272.938 400.246 272.881C400.127 272.877 400.015 272.932 399.939 273.03C399.864 273.133 399.834 273.259 399.859 273.386C401.457 277.045 402.268 280.984 402.255 285.217L402.122 285.249V285.249Z" fill="white"/>
<path d="M405.313 283.694L404.266 275.516C404.194 274.957 403.385 275.068 403.457 275.628L404.504 283.806C404.576 284.365 405.385 284.254 405.313 283.694V283.694Z" fill="#868686"/>
<path d="M408.522 281.944C408.378 279.807 407.948 277.698 407.257 275.689C407.075 275.159 406.319 275.49 406.501 276.019C407.169 277.961 407.573 279.991 407.713 282.057C407.751 282.62 408.56 282.505 408.522 281.944L408.522 281.944L408.522 281.944Z" fill="#868686"/>
<path d="M411.776 280.668C411.418 278.534 410.8 276.458 409.929 274.504C409.703 273.997 408.946 274.325 409.173 274.834C410.015 276.721 410.622 278.718 410.967 280.78C411.06 281.334 411.869 281.224 411.776 280.668Z" fill="#868686"/>
<path d="M421.117 278.841C421.099 278.866 421.081 278.89 421.061 278.914C419.769 280.492 414.94 285.552 407.052 284.422C406.47 284.339 405.993 283.865 405.867 283.243L405.867 283.243C405.633 278.752 404.717 274.759 403.4 271.058C403.309 270.605 403.42 270.133 403.684 269.78C403.956 269.418 404.361 269.213 404.794 269.216C407.917 269.237 413.684 268.946 417.203 266.759C417.599 266.514 418.065 266.484 418.482 266.68C418.895 266.873 419.189 267.256 419.289 267.729L421.374 277.58C421.467 278.023 421.372 278.487 421.117 278.841L421.117 278.841V278.841Z" fill="#868686"/>
<path d="M406.835 282.511L406.968 282.48C407.002 282.646 407.127 282.776 407.281 282.802C414.737 284.09 419.092 278.946 419.89 277.902C419.969 277.803 419.995 277.671 419.969 277.545L417.9 267.765C417.87 267.626 417.783 267.518 417.66 267.469C417.536 267.419 417.403 267.439 417.295 267.523C413.897 270.181 406.994 270.201 404.959 270.143C404.84 270.14 404.728 270.194 404.652 270.293C404.577 270.396 404.547 270.522 404.572 270.648C406.018 274.642 406.998 278.6 406.968 282.48L406.835 282.511V282.511Z" fill="white"/>
<path d="M410.026 280.956L408.979 272.778C408.907 272.219 408.098 272.331 408.17 272.89L409.217 281.069C409.289 281.628 410.098 281.516 410.026 280.956V280.956Z" fill="#868686"/>
<path d="M413.235 279.207C413.091 277.07 412.661 274.96 411.97 272.952C411.788 272.422 411.032 272.753 411.214 273.281C411.882 275.223 412.287 277.253 412.426 279.319C412.464 279.883 413.273 279.768 413.235 279.207L413.235 279.207L413.235 279.207Z" fill="#868686"/>
<path d="M416.489 277.93C416.132 275.797 415.514 273.721 414.642 271.767C414.416 271.26 413.659 271.587 413.886 272.096C414.728 273.984 415.335 275.981 415.68 278.042C415.773 278.596 416.582 278.486 416.489 277.93Z" fill="#868686"/>
<path d="M493.865 266.44C493.847 266.465 493.829 266.489 493.809 266.513C492.517 268.091 487.688 273.151 479.8 272.021C479.218 271.938 478.741 271.464 478.615 270.842L478.615 270.842L476.148 258.657C476.057 258.204 476.168 257.732 476.432 257.378C476.704 257.017 477.145 256.629 477.542 256.815C480.766 258.322 486.536 258.078 489.951 254.358C490.273 254.008 490.813 254.083 491.23 254.278C491.643 254.472 491.937 254.854 492.038 255.328L494.122 265.179C494.215 265.622 494.12 266.086 493.865 266.44V266.44Z" fill="#868686"/>
<path d="M479.583 270.11L479.716 270.078C479.75 270.245 479.875 270.374 480.029 270.401C487.485 271.689 491.84 266.545 492.638 265.5C492.717 265.402 492.743 265.27 492.717 265.143L490.648 255.363C490.618 255.225 490.531 255.117 490.408 255.067C490.284 255.018 490.13 255.013 490.043 255.122C486.714 259.331 479.804 259.198 477.707 257.742C477.607 257.672 477.476 257.793 477.4 257.891C477.325 257.994 477.295 258.12 477.32 258.247L479.716 270.078L479.583 270.11V270.11Z" fill="white"/>
<path d="M482.774 268.555L481.727 260.377C481.655 259.818 480.846 259.93 480.918 260.489L481.965 268.668C482.037 269.227 482.846 269.115 482.774 268.555Z" fill="#868686"/>
<path d="M485.983 266.806C485.839 264.669 485.409 262.559 484.718 260.551C484.536 260.02 483.78 260.352 483.962 260.88C484.63 262.822 485.035 264.852 485.174 266.918C485.212 267.482 486.021 267.367 485.983 266.806L485.983 266.806L485.983 266.806Z" fill="#868686"/>
<path d="M489.237 265.529C488.88 263.396 488.262 261.32 487.39 259.366C487.164 258.859 486.407 259.186 486.634 259.695C487.476 261.583 488.083 263.58 488.428 265.641C488.521 266.195 489.33 266.085 489.237 265.529Z" fill="#868686"/>
<path d="M517.673 316.563L515.701 319.307L504.929 312.453L507.839 308.404L517.673 316.563Z" fill="#FFB6B6"/>
<path d="M510.859 325.915C510.931 326.112 511.33 326.515 511.486 326.644C511.964 327.04 512.651 326.945 513.021 326.43L519.128 317.934C519.38 317.583 519.32 317.079 518.994 316.809L518.665 316.536C518.665 316.536 517.98 315.296 516.14 315.151C516.14 315.151 516.32 317.018 513.672 317.386L512.533 317.198L512.399 322.563L511.249 324.645C510.998 325.1 510.678 325.423 510.859 325.915L510.859 325.915V325.915Z" fill="#2F2E41"/>
<path d="M530.852 287.055L530.508 290.5L517.983 290.735L518.491 285.65L530.852 287.055Z" fill="#FFB6B6"/>
<path d="M529.602 298.85C529.759 298.976 530.296 299.094 530.492 299.116C531.092 299.185 531.632 298.716 531.696 298.071L532.761 287.402C532.805 286.961 532.508 286.566 532.098 286.52L531.685 286.473C531.685 286.473 530.496 285.804 528.856 286.717C528.856 286.717 529.92 288.203 527.842 290.008L526.779 290.489L529.28 295.13L529.315 297.549C529.323 298.078 529.208 298.533 529.602 298.85L529.602 298.85L529.602 298.85V298.85Z" fill="#2F2E41"/>
<path d="M477.492 270.314C476.844 269.993 476.317 269.54 475.965 269.045L469.611 266.412L470.868 263.158L477.178 266.179C477.754 266.143 478.416 266.278 479.064 266.599C480.545 267.332 481.393 268.758 480.959 269.784C480.525 270.81 478.973 271.047 477.492 270.314L477.492 270.314L477.492 270.314Z" fill="#FFB6B6"/>
<path d="M432.05 257.063C432.05 257.063 433.414 251.269 437.69 250.951C441.582 250.661 451.744 251.947 452.089 252.967L474.602 264.61L473.189 268.651L444.71 258.854L432.05 257.063L432.05 257.063L432.05 257.063Z" fill="#019298"/>
<path d="M457.287 285.624L483.123 303.49L509.505 316.755L513.136 310.55L486.551 292.956L465.939 273.127L457.287 285.624Z" fill="#2F2E41"/>
<path d="M462.876 289.523L493.475 292.688L522.599 291.495L523.188 284.198L492.04 281.643C481.333 276.324 471.13 271.807 465.254 274.165L462.876 289.523L462.876 289.523L462.876 289.523Z" fill="#2F2E41"/>
<path d="M463.561 288.795C463.091 289.448 462.423 289.903 461.647 290.081C460.604 290.321 459.55 290.022 458.755 289.261L448.801 279.065L436.646 269.721L436.635 269.707L431.246 262.936C431.053 262.752 430.87 262.527 430.715 262.28L426.297 255.216C425.502 253.945 425.554 252.276 426.426 251.062L427.779 249.179C428.457 248.237 429.521 247.723 430.626 247.805L434.108 248.062C434.34 248.079 434.57 248.123 434.793 248.192L445.944 251.633C446.297 251.743 446.63 251.913 446.931 252.141L471.429 270.662C472.243 271.277 472.751 272.242 472.823 273.309C472.895 274.37 472.524 275.398 471.809 276.129C467.711 280.315 465.28 284.937 463.961 288.077C463.852 288.336 463.718 288.577 463.561 288.795Z" fill="#019298"/>
<path d="M439.649 269.803L435.124 271.103C435.124 271.103 423.906 259.419 426.718 255.508C429.529 251.597 428.925 247.825 428.925 247.825C428.925 247.825 457.137 248.933 456.403 254.567C455.669 260.201 450.748 264.74 450.748 264.74L433.856 253.764C432.868 253.317 431.905 254.458 432.417 255.472L439.649 269.803L439.649 269.803L439.649 269.803Z" fill="#3F3D56"/>
<path d="M426.141 250.282C428.29 247.293 427.78 243 425.002 240.695C422.223 238.39 418.229 238.945 416.079 241.935C413.93 244.925 414.441 249.217 417.219 251.522C419.998 253.827 423.992 253.272 426.141 250.282Z" fill="#FFB6B6"/>
<path d="M427.995 244.977C427.813 245.606 427.539 246.573 427.357 247.202C426.186 246.957 426.149 246.036 425.249 245.197C424.948 244.916 424.668 244.606 424.334 244.374C424 244.142 423.595 243.99 423.204 244.073C422.606 244.199 422.191 244.891 422.25 245.543C422.309 246.194 422.778 246.755 423.349 246.982C421.686 247.972 419.432 247.633 418.089 246.191C417.609 246.501 417.118 246.819 416.764 247.285C416.409 247.751 416.212 248.401 416.404 248.965C416.538 249.361 416.846 249.673 416.952 250.079C417.123 250.738 416.65 251.465 416.034 251.641C415.418 251.818 414.742 251.52 414.312 251.016C413.881 250.512 412.386 250.339 412.29 249.662C412.225 249.201 413.488 248.227 413.473 247.76C413.459 247.334 413.446 246.906 413.485 246.482C413.535 245.943 413.672 245.414 413.887 244.924C414.09 244.461 414.361 244.036 414.631 243.614C414.905 243.185 414.553 241.986 414.827 241.557C415.634 240.295 417.09 239.777 418.247 238.885C419.405 237.992 420.858 238.032 422.275 238.181C424.292 238.394 425.559 239.942 426.406 241.651C426.616 242.073 427.329 241.831 427.619 242.194C427.888 242.532 427.888 243.049 428.153 243.39C428.381 243.681 427.789 243.801 427.99 244.113C428.164 244.383 428.16 244.75 428.056 245.059C427.951 245.368 427.759 245.632 427.57 245.89" fill="#2F2E41"/>
<path d="M428.895 247.579L429.162 247.495L429.833 247.284C431.851 246.65 433.797 248.478 433.48 250.712L429.172 250.259" fill="#3F3D56"/>
<path d="M415.258 279.848C415.909 279.608 416.555 279.546 417.104 279.637L423.165 276.932L424.274 280.067L418.006 282.474C417.624 282.908 417.078 283.285 416.428 283.525C414.942 284.073 413.476 283.694 413.153 282.678C412.83 281.663 413.773 280.396 415.258 279.848L415.258 279.848L415.258 279.848Z" fill="#FFB6B6"/>
<path d="M428.924 254.798C429.383 250.248 435.647 250.489 435.87 255.058L435.87 255.074L437.574 274.008L422.105 282.142L419.784 278.144L430.845 271.075L428.968 257.331C428.855 256.39 428.848 255.549 428.924 254.798L428.924 254.798V254.798Z" fill="#019298"/>
<path d="M398.172 333.153C397.989 333.408 398.032 333.776 398.269 333.972L404.934 339.501C405.171 339.698 405.513 339.651 405.697 339.395C405.88 339.14 405.837 338.773 405.599 338.576L398.935 333.047C398.697 332.85 398.355 332.898 398.172 333.153Z" fill="#3F3D56"/>
<path d="M407.854 333.946C408.998 332.354 408.752 330.088 407.303 328.887C405.855 327.685 403.752 328.002 402.608 329.594C401.463 331.186 401.709 333.452 403.158 334.653C404.607 335.855 406.709 335.538 407.854 333.946Z" fill="#019298"/>
<path d="M420.948 307.911L409.792 323.431C409.41 323.963 408.696 324.062 408.201 323.652C407.706 323.241 407.615 322.474 407.997 321.942L419.153 306.422C419.536 305.89 420.25 305.79 420.745 306.201C421.239 306.611 421.331 307.378 420.948 307.911Z" fill="#3D564C"/>
<path d="M432.691 298.319L412.829 325.951C412.447 326.483 411.733 326.582 411.238 326.172C410.743 325.761 410.652 324.994 411.035 324.462L430.896 296.83C431.279 296.298 431.993 296.198 432.488 296.609C432.983 297.019 433.074 297.786 432.691 298.319L432.691 298.319Z" fill="#3D564C"/>
<path d="M409.495 363.165C410.64 361.573 410.393 359.308 408.945 358.106C407.496 356.904 405.394 357.221 404.249 358.813C403.104 360.406 403.351 362.671 404.799 363.873C406.248 365.074 408.35 364.758 409.495 363.165Z" fill="#019298"/>
<path d="M422.589 337.13L411.434 352.65C411.051 353.182 410.337 353.282 409.842 352.871C409.347 352.461 409.256 351.694 409.639 351.161L420.795 335.641C421.177 335.109 421.891 335.01 422.386 335.42C422.881 335.83 422.972 336.598 422.589 337.13Z" fill="#3D564C"/>
<path d="M437.563 343.22C438.707 341.628 438.461 339.362 437.012 338.161C435.563 336.959 433.461 337.275 432.316 338.868C431.172 340.46 431.418 342.725 432.867 343.927C434.316 345.129 436.418 344.812 437.563 343.22Z" fill="#019298"/>
<path d="M462.4 307.593L442.538 335.225C442.156 335.757 441.442 335.856 440.947 335.446C440.452 335.035 440.361 334.268 440.744 333.736L460.605 306.104C460.988 305.572 461.702 305.472 462.197 305.883C462.692 306.293 462.783 307.061 462.4 307.593L462.4 307.593V307.593Z" fill="#3D564C"/>
<path d="M408.93 274.132C410.074 272.539 409.828 270.274 408.379 269.072C406.93 267.871 404.828 268.187 403.684 269.78C402.539 271.372 402.785 273.637 404.234 274.839C405.683 276.041 407.785 275.724 408.93 274.132Z" fill="#019298"/>
<path d="M491.053 257.539C492.198 255.946 491.951 253.681 490.503 252.479C489.054 251.277 486.952 251.594 485.807 253.186C484.662 254.779 484.909 257.044 486.358 258.246C487.806 259.448 489.908 259.131 491.053 257.539Z" fill="#019298"/>
</g>
<defs>
<linearGradient id="paint0_linear_138_686" x1="821.163" y1="945.122" x2="829.287" y2="659.766" gradientUnits="userSpaceOnUse">
<stop stop-color="white"/>
<stop offset="0.23" stop-color="#1DD9B3"/>
</linearGradient>
<linearGradient id="paint1_linear_138_686" x1="522.993" y1="313.533" x2="893.782" y2="683.977" gradientUnits="userSpaceOnUse">
<stop offset="0.13" stop-color="white"/>
<stop offset="0.21" stop-color="#1DD9B3"/>
</linearGradient>
<linearGradient id="paint2_linear_138_686" x1="1184.19" y1="423.749" x2="933.878" y2="551.609" gradientUnits="userSpaceOnUse">
<stop offset="0.02" stop-color="white"/>
<stop offset="0.23" stop-color="#1DD9B3"/>
</linearGradient>
<linearGradient id="paint3_linear_138_686" x1="1286.77" y1="625.449" x2="944.731" y2="606.308" gradientUnits="userSpaceOnUse">
<stop stop-color="white"/>
<stop offset="0.23" stop-color="#1DD9B3"/>
</linearGradient>
<linearGradient id="paint4_linear_138_686" x1="524.364" y1="990.284" x2="951.389" y2="528.53" gradientUnits="userSpaceOnUse">
<stop offset="0.13" stop-color="white"/>
<stop offset="0.21" stop-color="#1DD9B3"/>
</linearGradient>
<linearGradient id="paint5_linear_138_686" x1="656.318" y1="186.974" x2="815.16" y2="484.499" gradientUnits="userSpaceOnUse">
<stop offset="0.02" stop-color="white"/>
<stop offset="0.23" stop-color="#1DD9B3"/>
</linearGradient>
<clipPath id="clip0_138_686">
<rect width="1203.71" height="1225.08" fill="white" transform="translate(768.941 -269) rotate(38.878)"/>
</clipPath>
<clipPath id="clip1_138_686">
<rect width="134.382" height="130" fill="white" transform="matrix(-0.96459 -0.263755 0.230538 -0.973063 776.324 1140.52)"/>
</clipPath>
<clipPath id="clip2_138_686">
<rect width="131.323" height="130" fill="white" transform="matrix(0.994071 -0.108737 0.0969326 0.995291 714 48.2798)"/>
</clipPath>
<clipPath id="clip3_138_686">
<rect width="149.545" height="140" fill="white" transform="matrix(0.483552 0.875316 0.843197 -0.537605 315 798.265)"/>
</clipPath>
<clipPath id="clip4_138_686">
<rect width="180.323" height="130" fill="white" transform="translate(1366.55 347) rotate(71.8746)"/>
</clipPath>
<clipPath id="clip5_138_686">
<rect width="159.347" height="130" fill="white" transform="matrix(0.583662 -0.811996 0.769636 0.638483 356 323.389)"/>
</clipPath>
</defs>
</svg>
