<?xml version="1.0" encoding="UTF-8"?>
<svg id="Layer_2" data-name="Layer 2" xmlns="http://www.w3.org/2000/svg" viewBox="0 0 2000 1730.4">
  <defs>
    <style>
      .cls-1 {
        fill: #019298;
      }

      .cls-2 {
        fill: #1dd9b3;
      }

      .cls-3 {
        fill: #fcfcfc;
      }
    </style>
  </defs>
  <g id="Layer_1-2" data-name="Layer 1">
    <g>
      <path class="cls-3" d="M944.64,768.89c-107.57-14.34-179.78,34.39-212.78,134.51-47.75,144.89,21.28,315.44,162.64,401.88,250.6,153.22,596.92,44.67,738.16-231.38,185.25-362.06,19.19-814.61-364.5-993.39C761.2-155.69,150.64,150.06,17.87,707.26c-10.85,45.54-27.81,91.68-10.34,157.94,5.2-28.33,6.97-38.99,9.13-49.58C115.21,334.32,556.65,14.47,1010.52,95.5c370.94,66.22,617.27,391.31,557.92,736.28-41.89,243.47-253.06,421.7-480.82,405.81-135.59-9.46-244.39-92.84-277.74-212.84-29.42-105.89-1.37-161.88,134.75-255.87Z"/>
      <path class="cls-3" d="M1998.82,990.98c-46.89,95.72-74.32,174.75-118.73,245.52-264.55,421.62-813.56,540.72-1188.93,256.67-247.3-187.13-317.2-526.89-160.81-781.68,112.8-183.78,339.53-265.69,521.6-188.43,184.59,78.33,225.75,262.66,91.58,410.93-4.15,4.59-16.96,4.5-6.45,14.79,5.69,5.57,13.15,15.51,18.13,14.57,24.81-4.7,45.52-17.05,64.84-34.71,101.68-92.96,110.71-256.64,19.88-387.88-147.1-212.54-480.04-240.06-704.16-58.21-329.84,267.63-285.19,835.51,85.67,1089.69,488.66,334.92,1153.21,115.52,1353.29-447.08,12.51-35.17,30-70.01,24.1-134.19Z"/>
      <path class="cls-1" d="M944.64,768.89c-136.12,93.99-164.18,149.98-134.75,255.87,33.34,120.01,142.14,203.38,277.74,212.84,227.76,15.89,438.94-162.34,480.82-405.81,59.35-344.98-186.98-670.06-557.92-736.28C556.65,14.47,115.21,334.32,16.66,815.63c-2.17,10.58-3.93,21.25-9.13,49.58-17.47-66.26-.51-112.4,10.34-157.94C150.64,150.06,761.2-155.69,1268.16,80.52c383.69,178.77,549.75,631.32,364.5,993.39-141.24,276.04-487.56,384.6-738.16,231.38-141.37-86.44-210.39-256.99-162.64-401.88,33-100.13,105.21-148.86,212.78-134.51Z"/>
      <path class="cls-2" d="M1998.82,990.98c5.91,64.17-11.59,99.01-24.1,134.19-200.08,562.6-864.63,781.99-1353.29,447.08-370.86-254.18-415.51-822.06-85.67-1089.69,224.12-181.85,557.07-154.33,704.16,58.21,90.83,131.24,81.8,294.92-19.88,387.88-19.32,17.66-40.03,30-64.84,34.71-4.97,.94-12.44-9-18.13-14.57-10.51-10.29,2.3-10.2,6.45-14.79,134.17-148.27,93.01-332.6-91.58-410.93-182.07-77.26-408.8,4.65-521.6,188.43-156.39,254.79-86.49,594.55,160.81,781.68,375.38,284.04,924.39,164.95,1188.93-256.67,44.41-70.77,71.84-149.8,118.73-245.52Z"/>
    </g>
  </g>
</svg>