<svg width="62" height="45" viewBox="0 0 62 45" fill="none" xmlns="http://www.w3.org/2000/svg">
<path d="M51.5813 3.81306C58.2952 13.6116 61.611 24.6641 60.3715 37.3881C60.3663 37.4419 60.338 37.4913 60.2934 37.5238C55.2091 41.2296 50.2831 43.4786 45.4262 44.9701C45.3884 44.9815 45.3479 44.9809 45.3105 44.9683C45.273 44.9557 45.2405 44.9319 45.2174 44.9C44.0953 43.3503 43.0758 41.7164 42.1825 40.0007C42.1313 39.8997 42.1781 39.778 42.2836 39.7381C43.9028 39.1326 45.4425 38.4067 46.9235 37.5474C47.0402 37.4795 47.0476 37.3136 46.9399 37.2339C46.6256 37.0023 46.3142 36.7589 46.0162 36.5155C45.9605 36.4705 45.8854 36.4616 45.8223 36.4919C36.2073 40.8992 25.6745 40.8992 15.9458 36.4919C15.8827 36.4638 15.8076 36.4734 15.7534 36.5177C15.4561 36.7611 15.144 37.0023 14.8327 37.2339C14.7249 37.3136 14.7338 37.4795 14.8513 37.5474C16.3323 38.3905 17.872 39.1326 19.489 39.7411C19.5937 39.7809 19.6435 39.8997 19.5915 40.0007C18.7176 41.7187 17.6981 43.3525 16.5552 44.9022C16.5054 44.9649 16.4237 44.9937 16.3464 44.9701C11.5125 43.4786 6.58647 41.2296 1.50217 37.5238C1.45981 37.4913 1.42934 37.4397 1.42488 37.3859C0.389 26.3798 2.50015 15.2359 10.2069 3.81084C10.2254 3.7806 10.2537 3.757 10.2864 3.74298C14.0784 2.01547 18.141 0.744553 22.3871 0.0187345C22.4643 0.00693252 22.5416 0.0423383 22.5817 0.110199C23.1064 1.03223 23.7061 2.21463 24.1118 3.18091C28.5875 2.5023 33.1331 2.5023 37.7024 3.18091C38.1081 2.23529 38.687 1.03223 39.2094 0.110199C39.228 0.0765343 39.2568 0.0495636 39.2918 0.0331378C39.3268 0.016712 39.3661 0.011671 39.4041 0.0187345C43.6524 0.746766 47.7149 2.01769 51.504 3.74298C51.5375 3.757 51.565 3.7806 51.5813 3.81306ZM26.3872 24.7394C26.434 21.4857 24.0442 18.7934 21.0443 18.7934C18.0689 18.7934 15.7021 21.4621 15.7021 24.7394C15.7021 28.0159 18.1157 30.6846 21.0443 30.6846C24.0204 30.6846 26.3872 28.0159 26.3872 24.7394ZM46.1403 24.7394C46.1871 21.4857 43.7973 18.7934 40.7981 18.7934C37.822 18.7934 35.4552 21.4621 35.4552 24.7394C35.4552 28.0159 37.8688 30.6846 40.7981 30.6846C43.7973 30.6846 46.1403 28.0159 46.1403 24.7394Z" fill="white"/>
</svg>
