<svg width="50" height="50" viewBox="0 0 50 50" fill="none" xmlns="http://www.w3.org/2000/svg">
<g clip-path="url(#clip0_67_39)">
<path d="M24.9999 0C11.1928 0 0 11.1928 0 24.9999C0 38.8071 11.1928 49.9999 24.9999 49.9999C38.8071 49.9999 50 38.8071 50 24.9999C49.9999 11.1928 38.8069 0 24.9999 0ZM18.3299 37.0863H12.8409V19.3529H18.3299V37.0863ZM15.5593 17.0306C13.7666 17.0306 12.3134 15.5655 12.3134 13.7585C12.3134 11.9513 13.7668 10.4863 15.5593 10.4863C17.3517 10.4863 18.805 11.9513 18.805 13.7585C18.8051 15.5656 17.3518 17.0306 15.5593 17.0306ZM38.8999 37.0863H33.4375V27.7777C33.4375 25.2247 32.4678 23.7995 30.449 23.7995C28.2519 23.7995 27.1041 25.2838 27.1041 27.7777V37.0863H21.8395V19.3529H27.1041V21.7413C27.1041 21.7413 28.6877 18.812 32.4479 18.812C36.2082 18.812 38.9 21.108 38.9 25.8578L38.8999 37.0863Z" fill="white"/>
</g>
<defs>
<clipPath id="clip0_67_39">
<rect width="50" height="50" fill="white"/>
</clipPath>
</defs>
</svg>
