<svg width="36" height="49" viewBox="0 0 36 49" fill="none" xmlns="http://www.w3.org/2000/svg">
<path d="M17.9992 11.3857C16.6891 11.3857 15.4084 11.7742 14.3191 12.5021C13.2298 13.2299 12.3808 14.2644 11.8795 15.4748C11.3781 16.6852 11.2469 18.017 11.5025 19.302C11.7581 20.5869 12.389 21.7672 13.3154 22.6935C14.2417 23.6199 15.422 24.2508 16.7069 24.5064C17.9919 24.762 19.3237 24.6308 20.5341 24.1294C21.7444 23.6281 22.779 22.7791 23.5068 21.6898C24.2347 20.6005 24.6232 19.3198 24.6232 18.0097C24.6212 16.2535 23.9226 14.5699 22.6808 13.3281C21.439 12.0863 19.7554 11.3877 17.9992 11.3857ZM17.9992 21.3217C17.3442 21.3217 16.7038 21.1274 16.1592 20.7635C15.6145 20.3996 15.19 19.8823 14.9393 19.2771C14.6887 18.672 14.6231 18.006 14.7509 17.3636C14.8787 16.7211 15.1941 16.131 15.6573 15.6678C16.1205 15.2046 16.7106 14.8892 17.3531 14.7614C17.9955 14.6336 18.6615 14.6992 19.2666 14.9498C19.8718 15.2005 20.3891 15.625 20.753 16.1697C21.1169 16.7143 21.3112 17.3546 21.3112 18.0097C21.3102 18.8878 20.9609 19.7296 20.34 20.3505C19.7191 20.9714 18.8773 21.3207 17.9992 21.3217Z" fill="white"/>
<path d="M30.7277 5.27071C27.5806 2.12438 23.3796 0.255331 18.9354 0.0242929C14.4912 -0.206745 10.119 1.21661 6.66262 4.01964C3.2062 6.82268 0.910587 10.8067 0.218849 15.2027C-0.47289 19.5988 0.488279 24.0953 2.91685 27.8243L15.4306 47.0352C15.7091 47.4626 16.0899 47.8139 16.5384 48.057C16.9869 48.3001 17.489 48.4274 17.9992 48.4274C18.5094 48.4274 19.0115 48.3001 19.4601 48.057C19.9086 47.8139 20.2893 47.4626 20.5678 47.0352L33.082 27.8243C35.3355 24.3651 36.3313 20.2364 35.9027 16.1302C35.4741 12.024 33.647 8.19 30.7277 5.27071ZM30.307 26.0165L17.9993 44.9103L5.69146 26.0165C1.92408 20.2331 2.7321 12.4934 7.61271 7.61259C8.97668 6.24858 10.596 5.16659 12.3781 4.4284C14.1602 3.6902 16.0703 3.31025 17.9993 3.31025C19.9283 3.31025 21.8383 3.6902 23.6205 4.4284C25.4026 5.16659 27.0219 6.24858 28.3858 7.61259C33.2665 12.4934 34.0744 20.2331 30.307 26.0165Z" fill="white"/>
</svg>
