<?xml version="1.0" encoding="UTF-8"?>
<svg id="Layer_2" data-name="Layer 2" xmlns="http://www.w3.org/2000/svg" viewBox="0 0 1283 780.79">
  <defs>
    <style>
      .cls-1 {
        fill: rgba(29, 217, 179, .5);
      }

      .cls-1, .cls-2, .cls-3, .cls-4, .cls-5 {
        fill-rule: evenodd;
      }

      .cls-2 {
        fill: rgba(29, 217, 179, .3);
      }

      .cls-3 {
        fill: rgba(29, 217, 179, .7);
      }

      .cls-4 {
        fill: #1dd9b3;
      }

      .cls-6 {
        opacity: .6;
      }

      .cls-5 {
        fill: rgba(29, 217, 179, .4);
      }
    </style>
  </defs>
  <g id="Layer_1-2" data-name="Layer 1">
    <g class="cls-6">
      <path class="cls-3" d="M1283,458.64V130.62l-284.08,164.01,284.08,164.01Zm-12-21.87V152.48l-246.2,142.15,246.2,142.14Z"/>
      <path class="cls-3" d="M0,322.15v328.03l284.08-164.01L0,322.15Zm12,21.87v284.29l246.2-142.14L12,344.02Z"/>
      <path class="cls-3" d="M588,328.02V0L303.92,164.01l284.08,164.01Zm-13-21.87V21.86l-246.2,142.15,246.2,142.14Z"/>
      <path class="cls-3" d="M695,452.77v328.02l284.08-164.01-284.08-164.01Zm13,21.87v284.29l246.2-142.14-246.2-142.14Z"/>
      <path class="cls-1" d="M866,156.5V484.52l284.08-164.02-284.08-164.01Zm13,21.87V462.65l246.2-142.15-246.2-142.14Z"/>
      <path class="cls-1" d="M417,624.29V296.27L132.92,460.28l284.08,164.01Zm-13-21.87V318.14l-246.2,142.15,246.2,142.14Z"/>
      <path class="cls-4" d="M171,25.88V353.9L455.08,189.89,171,25.88Zm13,21.87V332.04l246.2-142.14L184,47.75Z"/>
      <path class="cls-4" d="M1112,754.91V426.88l-284.08,164.01,284.08,164.01Zm-13-21.87V448.75l-246.2,142.14,246.2,142.14Z"/>
      <path class="cls-1" d="M515,78.93V406.96l284.08-164.01L515,78.93Zm13,21.86V385.09l246.2-142.14-246.2-142.15Z"/>
      <path class="cls-1" d="M767,701.86V373.83l-284.08,164.01,284.08,164.01Zm-12-21.87V395.7l-246.2,142.14,246.2,142.14Z"/>
      <path class="cls-5" d="M169,29.07V357.09L453.08,193.08,169,29.07Zm13,21.86V335.22l246.2-142.14L182,50.93Z"/>
      <path class="cls-5" d="M1114,751.72V423.7l-284.08,164.01,284.08,164.01Zm-13-21.87V445.57l-246.2,142.14,246.2,142.14Z"/>
      <path class="cls-2" d="M658.92,242.75l284.08,164.01V78.74l-284.08,164.01Zm25.88,0l246.2,142.14V100.61l-246.2,142.14Z"/>
      <path class="cls-2" d="M623.08,538.04l-284.08-164.01v328.02l284.08-164.01Zm-24.88,0l-246.2-142.14v284.29l246.2-142.14Z"/>
    </g>
  </g>
</svg>